<?xml version="1.0" encoding="UTF-8" standalone="no"?><svg width="481" height="469" viewBox="0 0 481 469" fill="none" xmlns="http://www.w3.org/2000/svg">
<path d="M380.86 461.768C380.525 463.241 379.258 464.795 376.397 466.265C366.128 471.539 345.249 464.859 345.249 464.859C345.249 464.859 329.162 462.046 329.162 454.662C329.614 454.344 330.085 454.056 330.572 453.8C334.889 451.454 349.204 445.665 374.584 454.046C376.454 454.649 378.124 455.773 379.409 457.293C379.978 457.868 380.406 458.574 380.658 459.351C380.911 460.129 380.98 460.957 380.86 461.768Z" fill="#3F3D56"/>
<path opacity="0.1" d="M380.861 462.481C368.457 467.72 357.401 468.11 346.055 459.424C341.764 455.928 336.568 454.042 331.232 454.044C335.493 451.56 349.619 445.429 374.667 454.304C376.512 454.942 378.161 456.133 379.428 457.743C379.99 458.352 380.413 459.098 380.662 459.922C380.911 460.746 380.979 461.623 380.861 462.481Z" fill="black"/>
<path d="M365.391 460.012C368.249 460.012 370.566 459.549 370.566 458.977C370.566 458.405 368.249 457.942 365.391 457.942C362.532 457.942 360.215 458.405 360.215 458.977C360.215 459.549 362.532 460.012 365.391 460.012Z" fill="#F2F2F2"/>
<path d="M310.53 465.142V468.293H126.282V465.772L126.536 465.142L131.077 453.801H306.763L310.53 465.142Z" fill="#3F3D56"/>
<path opacity="0.1" d="M310.53 466.223V468.293H126.282V466.637L126.536 466.223H310.53Z" fill="black"/>
<path d="M463.909 0.427323H16.9051C14.685 0.427006 12.4866 0.919946 10.4355 1.87801C8.38431 2.83608 6.52059 4.24051 4.95074 6.01105C3.3809 7.7816 2.13574 9.88361 1.28627 12.197C0.436808 14.5104 -0.00028026 16.9899 1.34821e-07 19.4938V359.105C-0.000277904 361.609 0.436807 364.088 1.28627 366.402C2.13574 368.715 3.3809 370.817 4.95074 372.588C6.52059 374.358 8.38431 375.762 10.4355 376.721C12.4866 377.679 14.685 378.172 16.9051 378.171H186.592L180.234 423.949C180.234 423.949 143.904 445.717 169.449 446.357C194.994 446.998 315.339 446.357 315.339 446.357C315.339 446.357 338.614 446.357 301.715 423.309L295.735 378.171H463.909C466.129 378.172 468.328 377.679 470.379 376.721C472.43 375.762 474.294 374.358 475.863 372.588C477.433 370.817 478.678 368.715 479.528 366.402C480.377 364.088 480.814 361.609 480.814 359.105V19.4938C480.814 16.9899 480.377 14.5104 479.528 12.197C478.678 9.8836 477.433 7.78161 475.863 6.01105C474.294 4.2405 472.43 2.83608 470.379 1.87801C468.328 0.919948 466.129 0.426998 463.909 0.427323Z" fill="#3F3D56"/>
<path d="M464.635 20.595H16.1785V303.583H464.635V20.595Z" fill="white"/>
<path d="M240.407 14.8328C241.975 14.8328 243.245 13.3996 243.245 11.6316C243.245 9.86362 241.975 8.43039 240.407 8.43039C238.839 8.43039 237.569 9.86362 237.569 11.6316C237.569 13.3996 238.839 14.8328 240.407 14.8328Z" fill="white"/>
<path d="M240.407 364.406C246.364 364.406 251.193 358.96 251.193 352.242C251.193 345.523 246.364 340.077 240.407 340.077C234.45 340.077 229.622 345.523 229.622 352.242C229.622 358.96 234.45 364.406 240.407 364.406Z" fill="white"/>
<path d="M167.253 232.981C167.253 232.981 163.81 235.089 169.648 235.692C176.698 236.596 180.425 236.445 188.207 234.939C188.207 234.939 190.302 236.297 193.147 237.35C175.633 244.881 153.481 236.898 167.253 232.981ZM165.007 223.19C165.007 223.19 161.265 226.052 167.102 226.654C174.735 227.406 180.724 227.558 191.052 225.451C191.052 225.451 192.401 226.958 194.644 227.71C173.541 234.037 149.89 228.312 165.007 223.191V223.19ZM206.319 240.362C206.319 240.362 208.863 242.471 203.475 244.129C193.446 247.141 161.415 248.046 152.434 244.129C149.292 242.771 155.279 240.813 157.223 240.513C159.17 240.061 160.217 240.061 160.217 240.061C156.774 237.651 137.315 245.032 150.338 247.156C186.111 253.033 215.599 244.596 206.318 240.378L206.319 240.362ZM168.899 212.945C168.899 212.945 152.583 216.863 163.059 218.217C167.55 218.819 176.381 218.669 184.614 218.066C191.349 217.464 198.1 216.258 198.1 216.258C198.1 216.258 195.705 217.313 194.059 218.367C177.43 222.739 145.548 220.78 154.679 216.261C162.465 212.495 168.899 212.945 168.899 212.945ZM198.085 229.365C214.851 220.628 207.066 212.193 201.677 213.248C200.329 213.548 199.731 213.849 199.731 213.849C199.731 213.849 200.18 212.945 201.228 212.646C211.855 208.88 220.238 223.944 197.786 229.819C197.786 229.819 197.936 229.668 198.085 229.367V229.365ZM170.545 253.164C186.71 254.219 211.408 252.562 212.007 244.878C212.007 244.878 210.811 247.89 198.686 250.15C184.915 252.71 167.85 252.41 157.823 250.752C157.823 250.752 159.918 252.559 170.546 253.162L170.545 253.164Z" fill="#4E7896"/>
<path d="M187.893 163.235C187.893 163.235 197.173 172.725 179.063 187.034C164.543 198.632 175.767 205.261 179.063 212.791C170.531 205.11 164.396 198.33 168.584 192.003C174.736 182.669 191.648 178.15 187.893 163.235ZM183.104 206.467C187.444 211.438 181.908 215.958 181.908 215.958C181.908 215.958 192.984 210.235 187.896 203.153C183.256 196.374 179.663 193.06 199.122 181.76C199.122 181.76 168.437 189.441 183.107 206.464L183.104 206.467Z" fill="#F58219"/>
<path d="M175.38 285.413V270.653C175.38 266.886 173.285 264.326 168.045 264.326C165.052 264.326 162.506 265.078 160.26 265.982L161.007 268.694C162.653 268.092 164.75 267.491 166.995 267.491C169.84 267.491 171.187 268.694 171.187 271.106V273.065H169.689C162.505 273.065 159.211 275.776 159.211 280.16C159.211 283.775 161.456 285.882 165.498 285.882C168.042 285.882 169.988 284.679 171.784 283.17L172.083 285.43H175.378L175.38 285.413ZM171.188 280.593C169.691 281.95 168.046 282.701 166.548 282.701C164.601 282.701 163.406 281.498 163.406 279.385C163.406 277.272 164.601 275.77 169.394 275.77H171.188V280.59V280.593ZM189.449 285.413H184.211L177.924 264.776H182.414L186.307 277.43L187.205 281.196C189.152 275.773 190.647 270.199 191.247 264.776H195.737C194.542 271.555 192.442 278.935 189.45 285.413H189.449ZM213.697 285.413V270.653C213.697 266.886 211.602 264.326 206.362 264.326C203.369 264.326 200.824 265.078 198.577 265.982L199.175 268.694C200.971 268.092 203.067 267.491 205.311 267.491C208.155 267.491 209.503 268.694 209.503 271.106V273.065H208.005C200.821 273.065 197.527 275.776 197.527 280.16C197.527 283.775 199.622 285.882 203.663 285.882C206.358 285.882 208.304 284.679 210.1 283.17L210.399 285.43H213.694L213.697 285.413ZM209.506 280.593C208.008 281.95 206.364 282.701 204.865 282.701C202.919 282.701 201.723 281.498 201.723 279.385C201.723 277.272 202.919 275.77 207.711 275.77H209.507V280.59L209.506 280.593ZM154.575 288.875C153.38 290.683 151.582 292.037 149.337 292.793L147.391 290.382C148.888 289.478 150.384 288.123 150.983 286.918C151.581 285.863 151.731 284.358 151.731 280.892V257.396H156.221V280.593C156.221 285.263 155.772 287.071 154.575 288.878V288.875Z" fill="#4E7896"/>
<path d="M253.465 31.8961H259.221V37.6016H264.526V31.8961H270.281V49.1627H264.526V43.4072H259.271V49.1627H253.465V31.8961ZM277.889 37.6516H272.809V31.8961H288.749V37.6516H283.644V49.1627H277.889V37.6516ZM291.277 31.8961H297.307L301.011 37.977L304.715 31.8961H310.745V49.1627H304.99V40.6045L300.961 46.8104L296.932 40.6045V49.1627H291.277V31.8961ZM313.598 31.8961H319.354V43.4572H327.511V49.1627H313.598" fill="black"/>
<path d="M253.265 149.759L245.007 57.0703H335.794L327.536 149.709L290.326 160.019" fill="#E44D26"/>
<path d="M290.401 152.136V64.6776H327.511L320.429 143.753" fill="#F16529"/>
<path d="M261.873 76.0135H290.401V87.3744H274.335L275.386 99.0105H290.401V110.346H264.976L261.873 76.0135ZM265.477 116.052H276.888L277.688 125.136L290.401 128.539V140.4L267.078 133.894" fill="#EBEBEB"/>
<path d="M318.828 76.0135H290.351V87.3744H317.777L318.828 76.0135ZM316.751 99.0105H290.351V110.371H304.364L303.038 125.136L290.351 128.539V140.35L313.623 133.894" fill="white"/>
<path d="M452.926 57.0753L444.735 149.714L407.915 160.019L371.197 149.728L363.015 57.0753H452.926Z" fill="#264DE4"/>
<path d="M437.722 143.815L444.722 64.651H407.97V152.142L437.722 143.815Z" fill="#2965F1"/>
<path d="M381.773 99.0148L382.782 110.378H407.97V99.0148H381.773Z" fill="#EBEBEB"/>
<path d="M407.97 76.0147H407.932H379.746L380.769 87.3784H407.97V76.0147Z" fill="#EBEBEB"/>
<path d="M407.971 140.35V128.527L407.921 128.54L395.385 125.123L394.584 116.06H388.493H383.285L384.862 133.903L407.919 140.364L407.971 140.35Z" fill="#EBEBEB"/>
<path d="M384.175 31.8961H397.808V37.6516H389.876V43.4072H397.808V49.1627H384.175V31.8961Z" fill="black"/>
<path d="M400.534 31.8961H414.167V36.9009H406.235V37.9019H414.167V49.4129H400.534V44.1579H408.466V43.1569H400.534V31.8961Z" fill="black"/>
<path d="M416.894 31.8961H430.527V36.9009H422.595V37.9019H430.527V49.4129H416.894V44.1579H424.826V43.1569H416.894V31.8961Z" fill="black"/>
<path d="M421.792 110.378L420.485 125.116L407.932 128.537V140.359L431.007 133.902L431.176 131.983L433.821 102.066L434.096 99.0148L436.128 76.0147H407.932V87.3784H423.792L422.768 99.0148H407.932V110.378H421.792Z" fill="white"/>
<path d="M337.166 176.877H224.777V289.266H337.166V176.877Z" fill="#F7DF1E"/>
<path d="M300.274 264.681C302.538 268.378 305.483 271.095 310.692 271.095C315.068 271.095 317.863 268.908 317.863 265.886C317.863 262.264 314.991 260.981 310.175 258.875L307.534 257.742C299.913 254.495 294.851 250.428 294.851 241.829C294.851 233.908 300.886 227.879 310.317 227.879C317.032 227.879 321.859 230.216 325.338 236.334L317.114 241.615C315.303 238.368 313.35 237.089 310.317 237.089C307.224 237.089 305.263 239.051 305.263 241.615C305.263 244.783 307.226 246.066 311.757 248.028L314.397 249.159C323.37 253.007 328.437 256.93 328.437 265.75C328.437 275.258 320.967 280.467 310.936 280.467C301.128 280.467 294.792 275.794 291.691 269.667L300.274 264.681ZM262.966 265.597C264.625 268.54 266.134 271.029 269.763 271.029C273.233 271.029 275.422 269.671 275.422 264.392V228.482H285.983V264.535C285.983 275.471 279.571 280.448 270.212 280.448C261.757 280.448 256.86 276.072 254.369 270.801L262.966 265.597Z" fill="black"/>
<path d="M398.585 243.906C404.339 243.906 409.003 239.558 409.003 234.196C409.003 228.833 404.339 224.485 398.585 224.485C392.832 224.485 388.167 228.833 388.167 234.196C388.167 239.558 392.832 243.906 398.585 243.906Z" fill="#61DAFB"/>
<path d="M398.585 254.09C429.459 254.09 454.487 245.183 454.487 234.196C454.487 223.208 429.459 214.301 398.585 214.301C367.712 214.301 342.683 223.208 342.683 234.196C342.683 245.183 367.712 254.09 398.585 254.09Z" stroke="#61DAFB" stroke-width="3"/>
<path d="M380.101 244.143C395.537 269.064 416.327 284.812 426.536 279.319C436.745 273.825 432.507 249.169 417.07 224.248C401.633 199.328 380.843 183.579 370.634 189.072C360.426 194.566 364.664 219.222 380.101 244.143Z" stroke="#61DAFB" stroke-width="3"/>
<path d="M380.101 224.248C364.664 249.169 360.426 273.825 370.634 279.319C380.843 284.812 401.633 269.064 417.07 244.143C432.507 219.222 436.745 194.566 426.536 189.072C416.327 183.579 395.538 199.328 380.101 224.248Z" stroke="#61DAFB" stroke-width="3"/>
<path d="M84.9277 149.036H80.9142V159.497H77.877V129.729H85.2531C92.9547 129.729 96.6428 133.583 96.6428 138.979C96.7512 145.623 92.1954 149.036 84.9277 149.036ZM85.2531 132.703C84.9277 132.703 81.0227 132.703 81.0227 132.703V146.393L85.1446 146.283C90.6768 146.173 93.714 143.971 93.714 139.346C93.714 135.015 90.6768 132.703 85.2531 132.703Z" fill="black"/>
<path d="M110.238 159.387L108.502 164.122C106.55 169.407 104.489 170.949 101.56 170.949C99.9331 170.949 98.7399 170.508 97.4382 169.958L98.306 167.205C99.2823 167.755 100.367 168.196 101.56 168.196C103.187 168.196 104.381 167.315 106.008 163.131L107.418 159.277L99.0653 137.768H102.211L108.936 155.753L115.553 137.768H118.59L110.238 159.387Z" fill="black"/>
<path d="M128.498 132.703V159.607H125.46V132.703H115.156V129.84H138.73V132.703C138.694 132.703 128.498 132.703 128.498 132.703Z" fill="black"/>
<path d="M147.299 160.157C141.333 160.157 136.995 155.643 136.995 148.706C136.995 141.769 141.55 137.144 147.625 137.144C153.699 137.144 157.93 141.658 157.93 148.596C157.821 155.533 153.265 160.157 147.299 160.157ZM147.408 139.897C142.852 139.897 139.923 143.53 139.923 148.706C139.923 153.991 142.961 157.625 147.516 157.625C152.072 157.625 155.001 153.991 155.001 148.816C155.001 143.42 151.964 139.897 147.408 139.897Z" fill="black"/>
<path d="M165.198 159.607H162.269V137.768L165.198 137.107V141.732C166.608 138.979 168.669 137.107 171.489 137.107C172.899 137.107 174.201 137.548 175.286 138.098L174.526 140.851C173.55 140.3 172.465 139.86 171.272 139.86C168.994 139.86 166.933 141.622 165.198 145.476V159.607Z" fill="black"/>
<path d="M186.711 160.157C180.203 160.157 176.189 155.423 176.189 148.706C176.189 141.879 180.637 137.144 186.711 137.144C189.315 137.144 191.593 137.804 193.437 139.016L192.677 141.658C191.05 140.557 188.989 139.897 186.711 139.897C182.047 139.897 179.227 143.42 179.227 148.596C179.227 153.881 182.264 157.405 186.82 157.405C188.989 157.405 191.159 156.744 192.786 155.643L193.437 158.396C191.484 159.497 189.206 160.157 186.711 160.157Z" fill="black"/>
<path d="M211.371 159.607V145.476C211.371 141.622 209.852 139.97 206.815 139.97C204.32 139.97 201.934 141.291 200.198 143.053V159.607H197.269V127.527L200.198 126.867V140.667C202.476 138.355 205.296 137.254 207.683 137.254C211.805 137.254 214.408 140.007 214.408 144.742V159.644H211.371V159.607Z" fill="black"/>
<path d="M60.8107 136.924L58.4243 139.346C62.3293 143.31 62.3293 149.697 58.4243 153.587C54.5193 157.551 48.2278 157.551 44.3951 153.587C40.4901 149.623 40.4901 143.237 44.3951 139.346L50.5781 133.07L51.4459 132.189V127.454L42.1172 136.924C36.9105 142.209 36.9105 150.724 42.1172 156.01C47.3239 161.295 55.7125 161.295 60.8107 156.01C66.0174 150.688 66.0174 142.209 60.8107 136.924Z" fill="#EE4C2C"/>
<path d="M57.8819 134.574C57.8819 135.548 57.1049 136.336 56.1463 136.336C55.1878 136.336 54.4108 135.548 54.4108 134.574C54.4108 133.601 55.1878 132.813 56.1463 132.813C57.1049 132.813 57.8819 133.601 57.8819 134.574Z" fill="#EE4C2C"/>
<path d="M74.96 28.5245C50.9938 28.5245 52.4904 38.9721 52.4904 38.9721L52.5172 49.7957H75.3875V53.0454H43.4331C43.4331 53.0454 28.0972 51.2971 28.0972 75.6058C28.0972 99.9145 41.4827 99.0525 41.4827 99.0525H49.4713V87.7723C49.4713 87.7723 49.0407 74.3166 62.6432 74.3166C76.2456 74.3166 85.3265 74.3166 85.3265 74.3166C85.3265 74.3166 98.0709 74.5237 98.0709 61.9353C98.0709 49.3469 98.0709 41.1207 98.0709 41.1207C98.0709 41.1207 100.006 28.5245 74.96 28.5245ZM62.3493 35.8029C64.6247 35.8029 66.4638 37.6516 66.4638 39.9389C66.4638 42.2263 64.6247 44.075 62.3493 44.075C60.0738 44.075 58.2348 42.2263 58.2348 39.9389C58.2348 37.6516 60.0738 35.8029 62.3493 35.8029Z" fill="url(#paint0_linear_33_204)"/>
<path d="M75.6406 122.931C99.6068 122.931 98.1102 112.483 98.1102 112.483L98.0835 101.66H75.2131V98.4099H107.168C107.168 98.4099 122.503 100.158 122.503 75.8495C122.503 51.5408 109.118 52.4028 109.118 52.4028H101.129V63.683C101.129 63.683 101.56 77.1387 87.9575 77.1387C74.355 77.1387 65.2741 77.1387 65.2741 77.1387C65.2741 77.1387 52.5298 76.9316 52.5298 89.52C52.5298 102.108 52.5298 110.335 52.5298 110.335C52.5298 110.335 50.5948 122.931 75.6406 122.931ZM88.2514 115.652C85.9759 115.652 84.1368 113.804 84.1368 111.516C84.1368 109.229 85.9759 107.38 88.2514 107.38C90.5268 107.38 92.3659 109.229 92.3659 111.516C92.3659 113.804 90.5268 115.652 88.2514 115.652Z" fill="url(#paint1_linear_33_204)"/>
<path d="M230.842 72.0343L189.133 30.3264C186.732 27.9238 182.836 27.9238 180.433 30.3264L171.773 38.9888L182.758 49.9749C185.312 49.112 188.239 49.6911 190.274 51.7267C192.321 53.7748 192.895 56.7274 192.01 59.2902L202.6 69.8791C205.162 68.9954 208.117 69.5672 210.163 71.6163C213.022 74.4754 213.022 79.1081 210.163 81.9692C207.302 84.8293 202.669 84.8293 199.807 81.9692C197.657 79.8172 197.125 76.6566 198.216 74.0076L188.339 64.1319V90.1201C189.036 90.4653 189.694 90.9248 190.274 91.505C193.133 94.364 193.133 98.9967 190.274 101.859C187.415 104.717 182.779 104.717 179.922 101.859C177.063 98.9957 177.063 94.363 179.922 91.505C180.629 90.799 181.447 90.2646 182.321 89.907V63.6765C181.447 63.3189 180.631 62.7897 179.922 62.0786C177.757 59.914 177.236 56.7347 178.346 54.0753L167.516 43.2431L138.916 71.8409C136.513 74.2456 136.513 78.1412 138.916 80.5439L180.627 122.253C183.029 124.655 186.923 124.655 189.328 122.253L230.842 80.7372C233.245 78.3346 233.245 74.4369 230.842 72.0343Z" fill="#F05133"/>
<path fill-rule="evenodd" clip-rule="evenodd" d="M76.6811 176.565C78.6089 175.485 80.9826 175.485 82.9076 176.565C92.4334 181.907 121.099 197.984 130.627 203.325C132.555 204.403 133.742 206.399 133.742 208.561C133.742 219.243 133.742 251.394 133.742 262.077C133.742 264.238 132.555 266.235 130.627 267.316C121.102 272.657 92.4362 288.734 82.9076 294.075C80.9797 295.156 78.6061 295.156 76.6811 294.075C67.1553 288.734 38.4899 272.657 28.9612 267.316C27.0362 266.235 25.8494 264.241 25.8494 262.079C25.8494 251.397 25.8494 219.246 25.8494 208.564C25.8494 206.402 27.0362 204.405 28.9641 203.325C38.487 197.984 67.1581 181.907 76.6811 176.565Z" fill="#004482"/>
<path fill-rule="evenodd" clip-rule="evenodd" d="M26.7125 264.831C25.9573 263.821 25.8494 262.862 25.8494 261.572C25.8494 250.952 25.8494 218.985 25.8494 208.362C25.8494 206.212 27.0333 204.227 28.9555 203.155C38.4473 197.845 67.0161 181.861 76.5079 176.548C78.43 175.473 81.0337 175.496 82.9559 176.571C92.4476 181.881 120.92 197.728 130.412 203.038C131.178 203.469 131.763 203.988 132.286 204.672L26.7125 264.831Z" fill="#659AD2"/>
<path fill-rule="evenodd" clip-rule="evenodd" d="M79.7957 195.61C101.735 195.61 119.546 213.403 119.546 235.32C119.546 257.238 101.735 275.031 79.7957 275.031C57.8566 275.031 40.0458 257.238 40.0458 235.32C40.0458 213.403 57.8566 195.61 79.7957 195.61ZM79.7957 215.465C90.7639 215.465 99.6707 224.36 99.6707 235.32C99.6707 246.277 90.7639 255.175 79.7957 255.175C68.8276 255.175 59.9208 246.277 59.9208 235.32C59.9208 224.36 68.8248 215.465 79.7957 215.465Z" fill="white"/>
<path fill-rule="evenodd" clip-rule="evenodd" d="M132.28 204.7C133.745 206.07 133.717 208.135 133.717 209.761C133.717 220.525 133.626 251.142 133.742 261.906C133.753 263.03 133.382 264.212 132.825 265.103L78.6401 235.32L132.28 204.7Z" fill="#00599C"/>
<defs>
<linearGradient id="paint0_linear_33_204" x1="37.1698" y1="36.7764" x2="84.0955" y2="83.6139" gradientUnits="userSpaceOnUse">
<stop stop-color="#387EB8"/>
<stop offset="1" stop-color="#366994"/>
</linearGradient>
<linearGradient id="paint1_linear_33_204" x1="65.886" y1="66.7282" x2="116.272" y2="114.749" gradientUnits="userSpaceOnUse">
<stop stop-color="#FFE052"/>
<stop offset="1" stop-color="#FFC331"/>
</linearGradient>
</defs>
</svg>
