<?xml version="1.0" encoding="UTF-8" standalone="no"?><svg width="64" height="62" viewBox="0 0 64 62" fill="none" xmlns="http://www.w3.org/2000/svg">
<mask id="path-1-outside-1_33_184" maskUnits="userSpaceOnUse" x="1.16101" y="0" width="63" height="25" fill="black">
<rect fill="white" x="1.16101" width="63" height="25"/>
<path d="M62.1568 23.9452C62.1349 23.9452 62.1135 23.9379 62.0956 23.9242L32.4133 1.33913C32.323 1.27072 32.2156 1.23416 32.1057 1.23437C31.9958 1.23457 31.8886 1.27153 31.7985 1.34028L2.33 23.924C2.30669 23.9418 2.27785 23.9488 2.2498 23.9435C2.22176 23.9381 2.19682 23.9208 2.18047 23.8953C2.16413 23.8698 2.15771 23.8383 2.16263 23.8077C2.16755 23.777 2.18341 23.7498 2.20672 23.7319L31.6752 1.14824C31.8014 1.05201 31.9515 1.00028 32.1054 1C32.2592 0.999725 32.4095 1.05091 32.536 1.14669L62.2182 23.7317C62.237 23.746 62.2511 23.7664 62.2585 23.79C62.2658 23.8137 62.2661 23.8393 62.2593 23.8631C62.2524 23.8869 62.2388 23.9077 62.2204 23.9225C62.2019 23.9373 62.1797 23.9452 62.1568 23.9452L62.1568 23.9452Z"/>
</mask>
<path d="M62.1568 23.9452C62.1349 23.9452 62.1135 23.9379 62.0956 23.9242L32.4133 1.33913C32.323 1.27072 32.2156 1.23416 32.1057 1.23437C31.9958 1.23457 31.8886 1.27153 31.7985 1.34028L2.33 23.924C2.30669 23.9418 2.27785 23.9488 2.2498 23.9435C2.22176 23.9381 2.19682 23.9208 2.18047 23.8953C2.16413 23.8698 2.15771 23.8383 2.16263 23.8077C2.16755 23.777 2.18341 23.7498 2.20672 23.7319L31.6752 1.14824C31.8014 1.05201 31.9515 1.00028 32.1054 1C32.2592 0.999725 32.4095 1.05091 32.536 1.14669L62.2182 23.7317C62.237 23.746 62.2511 23.7664 62.2585 23.79C62.2658 23.8137 62.2661 23.8393 62.2593 23.8631C62.2524 23.8869 62.2388 23.9077 62.2204 23.9225C62.2019 23.9373 62.1797 23.9452 62.1568 23.9452L62.1568 23.9452Z" fill="#3F3D56"/>
<path d="M62.1568 23.9452L62.1575 24.9452L62.6362 23.0676L62.1568 23.9452ZM62.0956 23.9242L62.7016 23.1288L62.7011 23.1284L62.0956 23.9242ZM32.4133 1.33913L33.0188 0.54331L33.017 0.541943L32.4133 1.33913ZM31.7985 1.34028L31.1919 0.545207L31.1902 0.546556L31.7985 1.34028ZM2.33 23.924L2.93826 24.7177L2.93828 24.7177L2.33 23.924ZM2.20672 23.7319L2.81498 24.5257L2.815 24.5257L2.20672 23.7319ZM31.6752 1.14824L31.0688 0.353102L31.0669 0.354516L31.6752 1.14824ZM32.536 1.14669L33.1415 0.350869L33.1397 0.349515L32.536 1.14669ZM62.2182 23.7317L62.824 22.936L62.8238 22.9359L62.2182 23.7317ZM62.1568 23.9452L62.1573 22.9452L61.6774 24.8228L62.1568 23.9452ZM62.1562 22.9452C62.3607 22.9451 62.5511 23.0141 62.7016 23.1288L61.4895 24.7196C61.6759 24.8617 61.9091 24.9454 62.1575 24.9452L62.1562 22.9452ZM62.7011 23.1284L33.0188 0.543312L31.8078 2.13495L61.49 24.72L62.7011 23.1284ZM33.017 0.541943C32.7582 0.34595 32.4395 0.233742 32.1038 0.234368L32.1076 2.23436C31.9917 2.23458 31.8877 2.19549 31.8096 2.13632L33.017 0.541943ZM32.1038 0.234368C31.7682 0.234993 31.45 0.348374 31.1919 0.545209L32.405 2.13534C32.3272 2.19469 32.2234 2.23415 32.1076 2.23436L32.1038 0.234368ZM31.1902 0.546556L1.72172 23.1302L2.93828 24.7177L32.4067 2.134L31.1902 0.546556ZM1.72174 23.1302C1.91755 22.9802 2.17693 22.9113 2.43812 22.9614L2.06149 24.9256C2.37876 24.9864 2.69584 24.9035 2.93826 24.7177L1.72174 23.1302ZM2.43812 22.9614C2.69665 23.0109 2.90024 23.1654 3.02199 23.3551L1.33896 24.4355C1.4934 24.6761 1.74687 24.8652 2.06149 24.9256L2.43812 22.9614ZM3.02199 23.3551C3.14223 23.5424 3.18299 23.7607 3.14997 23.9663L1.17528 23.6491C1.13242 23.9159 1.18602 24.1973 1.33896 24.4355L3.02199 23.3551ZM3.14997 23.9663C3.11688 24.1723 3.00689 24.3786 2.81498 24.5257L1.59846 22.9382C1.35992 23.121 1.21821 23.3818 1.17528 23.6491L3.14997 23.9663ZM2.815 24.5257L32.2835 1.94196L31.0669 0.354516L1.59843 22.9382L2.815 24.5257ZM32.2816 1.94337C32.2399 1.9752 32.179 1.99987 32.1072 2L32.1036 2.74181e-06C31.7239 0.000684321 31.3629 0.12881 31.0688 0.353105L32.2816 1.94337ZM32.1072 2C32.0353 2.00013 31.9742 1.97567 31.9322 1.94387L33.1397 0.349515C32.8448 0.126161 32.4832 -0.000678897 32.1036 2.74181e-06L32.1072 2ZM31.9304 1.94251L61.6127 24.5275L62.8238 22.9359L33.1415 0.350871L31.9304 1.94251ZM61.6125 24.5274C61.4576 24.4094 61.3551 24.252 61.3039 24.0882L63.213 23.4919C63.1471 23.2809 63.0164 23.0825 62.824 22.936L61.6125 24.5274ZM61.3039 24.0882C61.2529 23.9248 61.2511 23.7506 61.2982 23.5866L63.2203 24.1395C63.2812 23.9279 63.2788 23.7026 63.213 23.4919L61.3039 24.0882ZM61.2982 23.5866C61.3455 23.4223 61.4438 23.2633 61.595 23.1422L62.8458 24.7028C63.0337 24.5521 63.1593 24.3515 63.2203 24.1395L61.2982 23.5866ZM61.595 23.1422C61.7477 23.0197 61.9446 22.9451 62.1573 22.9452L62.1563 24.9452C62.4147 24.9453 62.6561 24.8548 62.8458 24.7028L61.595 23.1422ZM61.6774 24.8228L61.6774 24.8228L62.6362 23.0676L62.6362 23.0676L61.6774 24.8228Z" fill="black" mask="url(#path-1-outside-1_33_184)"/>
<path d="M3.69939 24.3572L3.27384 24.7018L3.65557 25.0943L18.629 40.4928L18.7283 40.595L18.8666 40.6294L33.4631 44.2646L33.6737 44.317L33.8558 44.1991L60.7412 26.7856L61.3017 26.4227L60.7956 25.987L32.4612 1.59655L32.1448 1.3242L31.8204 1.58691L3.69939 24.3572Z" fill="#E6E6E6" stroke="black"/>
<path d="M49.8019 3.97242C49.5716 3.72073 49.2493 3.56975 48.9027 3.56931H48.9021L15.6307 3.56931L15.63 3.56931C15.2835 3.56975 14.9612 3.72074 14.7309 3.97242C14.5018 4.22263 14.3798 4.55314 14.3794 4.88961V4.89014V29.5004V29.8227L14.6729 29.9558L32.016 37.8181L32.0186 37.8192C32.1797 37.8911 32.3538 37.9287 32.5306 37.9286C32.7126 37.9286 32.8915 37.8889 33.0563 37.8132L33.0591 37.8119L49.8322 29.9859L49.8324 29.9858L49.865 29.9705L50.1534 29.8358V29.5176V4.89014V4.8896C50.153 4.55314 50.0309 4.22264 49.8019 3.97242ZM49.8019 3.97242L49.4338 4.30937L49.8019 3.97242C49.8019 3.97242 49.8019 3.97242 49.8019 3.97242Z" fill="white" stroke="black"/>
<path d="M32.5756 36.7428C32.5465 36.7558 32.5168 36.756 32.4879 36.7435C32.4874 36.7434 32.487 36.7432 32.4866 36.743L15.5405 29.0606L15.5405 4.89066C15.5405 4.89059 15.5405 4.89053 15.5405 4.89046C15.5406 4.83842 15.5599 4.79643 15.5824 4.77188C15.6034 4.74888 15.6221 4.74522 15.6313 4.74517H48.9017C48.9108 4.74522 48.9295 4.74889 48.9505 4.77188L49.1152 4.62114L48.9505 4.77188C48.973 4.79646 48.9924 4.83851 48.9925 4.89065V29.083L32.5766 36.7423C32.5762 36.7425 32.5759 36.7426 32.5756 36.7428ZM31.9985 37.8736C32.1659 37.9483 32.3468 37.9873 32.5307 37.9871C32.72 37.9872 32.9061 37.9459 33.0777 37.867L33.0802 37.8658L49.9185 30.0093L50.2071 29.8747V29.5562V4.89012V4.88959C50.2067 4.53758 50.079 4.19216 49.8399 3.93095C49.5995 3.66827 49.2636 3.5111 48.9028 3.51065H48.9022L15.6308 3.51065L15.6301 3.51065C15.2693 3.5111 14.9334 3.66827 14.693 3.93095C14.4539 4.19216 14.3262 4.53757 14.3258 4.8896V4.89012V29.5395V29.8618L14.6194 29.9949L31.9957 37.8723L31.9985 37.8736Z" fill="#3F3D56" stroke="black"/>
<mask id="path-6-outside-2_33_184" maskUnits="userSpaceOnUse" x="0.51709" y="22.7107" width="64" height="40" fill="black">
<rect fill="white" x="0.51709" y="22.7107" width="64" height="40"/>
<path d="M61.9423 23.7107H61.9208L49.5996 29.4589L32.7418 37.3236C32.6759 37.3539 32.6052 37.3697 32.5338 37.3701C32.4623 37.3705 32.3915 37.3555 32.3253 37.326L14.933 29.4425L2.30915 23.7201L2.28987 23.7107H2.26838C2.06919 23.7109 1.87823 23.7975 1.73738 23.9514C1.59653 24.1053 1.51731 24.3139 1.51709 24.5315V60.1792C1.51731 60.3968 1.59653 60.6054 1.73738 60.7593C1.87823 60.9132 2.06919 60.9998 2.26838 61H61.9423C62.1415 60.9998 62.3324 60.9132 62.4733 60.7593C62.6141 60.6054 62.6933 60.3968 62.6936 60.1792V24.5315C62.6933 24.3139 62.6141 24.1053 62.4733 23.9514C62.3324 23.7975 62.1415 23.7109 61.9423 23.7107ZM62.4789 60.1792C62.4788 60.3346 62.4223 60.4837 62.3217 60.5937C62.221 60.7036 62.0846 60.7654 61.9423 60.7655H2.26838C2.12607 60.7654 1.98961 60.7036 1.88898 60.5937C1.78836 60.4837 1.7318 60.3346 1.73174 60.1792V24.5315C1.73194 24.3799 1.78577 24.2342 1.88198 24.125C1.97819 24.0157 2.10933 23.9513 2.24799 23.9452L14.933 29.6957L32.2427 37.5429C32.4301 37.6262 32.6401 37.6249 32.8266 37.5394L49.5996 29.7133L61.9638 23.9452C62.1022 23.9517 62.233 24.0163 62.3289 24.1255C62.4249 24.2347 62.4786 24.3802 62.4789 24.5315V60.1792Z"/>
<path d="M62.4789 60.1792C62.4788 60.3346 62.4223 60.4837 62.3217 60.5937C62.221 60.7036 62.0846 60.7654 61.9423 60.7655H2.26838C2.12607 60.7654 1.98961 60.7036 1.88898 60.5937C1.78836 60.4837 1.7318 60.3346 1.73174 60.1792V24.5315C1.73194 24.3799 1.78577 24.2342 1.88198 24.125C1.97819 24.0157 2.10933 23.9513 2.24799 23.9452L14.933 29.6957L32.2427 37.5429C32.4301 37.6262 32.6401 37.6249 32.8266 37.5394L49.5996 29.7133L61.9638 23.9452C62.1022 23.9517 62.233 24.0163 62.3289 24.1255C62.4249 24.2347 62.4786 24.3802 62.4789 24.5315V60.1792Z"/>
</mask>
<path d="M61.9423 23.7107H61.9208L49.5996 29.4589L32.7418 37.3236C32.6759 37.3539 32.6052 37.3697 32.5338 37.3701C32.4623 37.3705 32.3915 37.3555 32.3253 37.326L14.933 29.4425L2.30915 23.7201L2.28987 23.7107H2.26838C2.06919 23.7109 1.87823 23.7975 1.73738 23.9514C1.59653 24.1053 1.51731 24.3139 1.51709 24.5315V60.1792C1.51731 60.3968 1.59653 60.6054 1.73738 60.7593C1.87823 60.9132 2.06919 60.9998 2.26838 61H61.9423C62.1415 60.9998 62.3324 60.9132 62.4733 60.7593C62.6141 60.6054 62.6933 60.3968 62.6936 60.1792V24.5315C62.6933 24.3139 62.6141 24.1053 62.4733 23.9514C62.3324 23.7975 62.1415 23.7109 61.9423 23.7107ZM62.4789 60.1792C62.4788 60.3346 62.4223 60.4837 62.3217 60.5937C62.221 60.7036 62.0846 60.7654 61.9423 60.7655H2.26838C2.12607 60.7654 1.98961 60.7036 1.88898 60.5937C1.78836 60.4837 1.7318 60.3346 1.73174 60.1792V24.5315C1.73194 24.3799 1.78577 24.2342 1.88198 24.125C1.97819 24.0157 2.10933 23.9513 2.24799 23.9452L14.933 29.6957L32.2427 37.5429C32.4301 37.6262 32.6401 37.6249 32.8266 37.5394L49.5996 29.7133L61.9638 23.9452C62.1022 23.9517 62.233 24.0163 62.3289 24.1255C62.4249 24.2347 62.4786 24.3802 62.4789 24.5315V60.1792Z" fill="#3F3D56"/>
<path d="M62.4789 60.1792C62.4788 60.3346 62.4223 60.4837 62.3217 60.5937C62.221 60.7036 62.0846 60.7654 61.9423 60.7655H2.26838C2.12607 60.7654 1.98961 60.7036 1.88898 60.5937C1.78836 60.4837 1.7318 60.3346 1.73174 60.1792V24.5315C1.73194 24.3799 1.78577 24.2342 1.88198 24.125C1.97819 24.0157 2.10933 23.9513 2.24799 23.9452L14.933 29.6957L32.2427 37.5429C32.4301 37.6262 32.6401 37.6249 32.8266 37.5394L49.5996 29.7133L61.9638 23.9452C62.1022 23.9517 62.233 24.0163 62.3289 24.1255C62.4249 24.2347 62.4786 24.3802 62.4789 24.5315V60.1792Z" fill="white"/>
<path d="M62.4789 60.1792L62.9789 60.1793V60.1792H62.4789ZM61.9423 60.7655V61.2655H61.9425L61.9423 60.7655ZM2.26838 60.7655L2.26816 61.2655H2.26838V60.7655ZM1.73174 60.1792H1.23174L1.23174 60.1793L1.73174 60.1792ZM1.73174 24.5315L1.23174 24.5309V24.5315H1.73174ZM2.24799 23.9452L2.45444 23.4898L2.34554 23.4405L2.22609 23.4457L2.24799 23.9452ZM14.933 29.6957L15.1394 29.2404L15.1394 29.2404L14.933 29.6957ZM32.2427 37.5429L32.0363 37.9983L32.0396 37.9998L32.2427 37.5429ZM32.8266 37.5394L33.035 37.9939L33.038 37.9925L32.8266 37.5394ZM49.5996 29.7133L49.3883 29.2602L49.3882 29.2602L49.5996 29.7133ZM61.9638 23.9452L61.9873 23.4458L61.8641 23.44L61.7524 23.4921L61.9638 23.9452ZM62.4789 24.5315H62.9789V24.5305L62.4789 24.5315ZM61.9789 60.179C61.9789 60.2155 61.9652 60.2426 61.9528 60.2561L62.6905 60.9313C62.8794 60.7249 62.9788 60.4538 62.9789 60.1793L61.9789 60.179ZM61.9528 60.2561C61.9471 60.2624 61.9428 60.2647 61.9414 60.2653C61.94 60.2659 61.9404 60.2655 61.9421 60.2655L61.9425 61.2655C62.2323 61.2654 62.5003 61.1391 62.6905 60.9313L61.9528 60.2561ZM61.9423 60.2655H2.26838V61.2655H61.9423V60.2655ZM2.2686 60.2655C2.27021 60.2655 2.27062 60.2659 2.26929 60.2653C2.26786 60.2647 2.26354 60.2624 2.25782 60.2561L1.52015 60.9313C1.71039 61.1391 1.97833 61.2654 2.26816 61.2655L2.2686 60.2655ZM2.25782 60.2561C2.24545 60.2426 2.23176 60.2155 2.23174 60.179L1.23174 60.1793C1.23184 60.4538 1.33127 60.7249 1.52015 60.9313L2.25782 60.2561ZM2.23174 60.1792V24.5315H1.23174V60.1792H2.23174ZM2.23174 24.5322C2.23179 24.4965 2.24484 24.4695 2.25724 24.4554L1.50672 23.7946C1.3267 23.999 1.23209 24.2633 1.23174 24.5309L2.23174 24.5322ZM2.25724 24.4554C2.26302 24.4488 2.2676 24.4461 2.26948 24.4452C2.27126 24.4443 2.27129 24.4447 2.2699 24.4447L2.22609 23.4457C1.94427 23.4581 1.68788 23.5888 1.50672 23.7946L2.25724 24.4554ZM2.04155 24.4006L14.7265 30.1511L15.1394 29.2404L2.45444 23.4898L2.04155 24.4006ZM14.7265 30.1511L32.0363 37.9983L32.4492 37.0875L15.1394 29.2404L14.7265 30.1511ZM32.0396 37.9998C32.3583 38.1415 32.7181 38.1392 33.035 37.9939L32.6181 37.0849C32.562 37.1107 32.5019 37.111 32.4458 37.086L32.0396 37.9998ZM33.038 37.9925L49.8111 30.1664L49.3882 29.2602L32.6152 37.0863L33.038 37.9925ZM49.811 30.1665L62.1751 24.3983L61.7524 23.4921L49.3883 29.2602L49.811 30.1665ZM61.9402 24.4447C61.9389 24.4446 61.939 24.4443 61.9409 24.4452C61.9428 24.4462 61.9475 24.4489 61.9533 24.4556L62.7045 23.7955C62.524 23.59 62.2685 23.459 61.9873 23.4458L61.9402 24.4447ZM61.9533 24.4556C61.9658 24.4698 61.9788 24.4968 61.9789 24.5326L62.9789 24.5305C62.9783 24.2635 62.8839 23.9997 62.7045 23.7955L61.9533 24.4556ZM61.9789 24.5315V60.1792H62.9789V24.5315H61.9789ZM61.9423 23.7107L61.9435 22.7107H61.9423V23.7107ZM61.9208 23.7107V22.7107H61.699L61.498 22.8045L61.9208 23.7107ZM49.5996 29.4589L49.1769 28.5526L49.1769 28.5526L49.5996 29.4589ZM32.7418 37.3236L33.1594 38.2323L33.1646 38.2299L32.7418 37.3236ZM32.3253 37.326L31.9125 38.2368L31.9177 38.2391L32.3253 37.326ZM14.933 29.4425L14.5201 30.3533L14.5201 30.3533L14.933 29.4425ZM2.30915 23.7201L1.87165 24.6193L1.88389 24.6253L1.89629 24.6309L2.30915 23.7201ZM2.28987 23.7107L2.72737 22.8115L2.52022 22.7107H2.28987V23.7107ZM2.26838 23.7107V22.7107L2.26717 22.7107L2.26838 23.7107ZM1.51709 24.5315L0.51709 24.5305V24.5315H1.51709ZM1.51709 60.1792H0.517089L0.51709 60.1802L1.51709 60.1792ZM2.26838 61L2.26717 62H2.26838V61ZM61.9423 61V62H61.9435L61.9423 61ZM62.6936 60.1792L63.6936 60.1802V60.1792H62.6936ZM62.6936 24.5315H63.6936V24.5305L62.6936 24.5315ZM61.9423 22.7107H61.9208V24.7107H61.9423V22.7107ZM61.498 22.8045L49.1769 28.5526L50.0224 30.3651L62.3436 24.6169L61.498 22.8045ZM49.1769 28.5526L32.319 36.4174L33.1646 38.2299L50.0224 30.3651L49.1769 28.5526ZM32.3242 36.415C32.3857 36.3868 32.4553 36.3705 32.5281 36.3701L32.5394 38.3701C32.7552 38.3689 32.9662 38.3211 33.1594 38.2323L32.3242 36.415ZM32.5281 36.3701C32.601 36.3697 32.6709 36.3852 32.7329 36.4128L31.9177 38.2391C32.112 38.3259 32.3236 38.3713 32.5394 38.3701L32.5281 36.3701ZM32.7382 36.4152L15.3458 28.5317L14.5201 30.3533L31.9125 38.2368L32.7382 36.4152ZM15.3458 28.5317L2.72201 22.8093L1.89629 24.6309L14.5201 30.3533L15.3458 28.5317ZM2.74665 22.8209L2.72737 22.8115L1.85237 24.6099L1.87165 24.6193L2.74665 22.8209ZM2.28987 22.7107H2.26838V24.7107H2.28987V22.7107ZM2.26717 22.7107C1.77321 22.7113 1.31961 22.9267 0.999716 23.2762L2.47505 24.6265C2.43685 24.6683 2.36517 24.7106 2.26959 24.7107L2.26717 22.7107ZM0.999716 23.2762C0.68252 23.6228 0.517553 24.0752 0.51709 24.5305L2.51709 24.5325C2.51707 24.5526 2.51055 24.5878 2.47505 24.6265L0.999716 23.2762ZM0.51709 24.5315V60.1792H2.51709V24.5315H0.51709ZM0.51709 60.1802C0.517553 60.6355 0.682523 61.0879 0.999716 61.4345L2.47505 60.0841C2.51055 60.1229 2.51707 60.1581 2.51709 60.1781L0.51709 60.1802ZM0.999716 61.4345C1.31959 61.784 1.7732 61.9994 2.26717 62L2.26959 60C2.36519 60.0001 2.43686 60.0424 2.47505 60.0841L0.999716 61.4345ZM2.26838 62H61.9423V60H2.26838V62ZM61.9435 62C62.4375 61.9994 62.8911 61.784 63.2109 61.4345L61.7356 60.0841C61.7738 60.0424 61.8455 60.0001 61.9411 60L61.9435 62ZM63.2109 61.4345C63.5281 61.0879 63.6931 60.6355 63.6936 60.1802L61.6936 60.1781C61.6936 60.158 61.7001 60.1229 61.7356 60.0841L63.2109 61.4345ZM63.6936 60.1792V24.5315H61.6936V60.1792H63.6936ZM63.6936 24.5305C63.6931 24.0752 63.5281 23.6228 63.2109 23.2762L61.7356 24.6265C61.7001 24.5878 61.6936 24.5526 61.6936 24.5325L63.6936 24.5305ZM63.2109 23.2762C62.891 22.9267 62.4374 22.7113 61.9435 22.7107L61.9411 24.7107C61.8455 24.7106 61.7738 24.6683 61.7356 24.6265L63.2109 23.2762Z" fill="black" mask="url(#path-6-outside-2_33_184)"/>
</svg>
