<?xml version="1.0" encoding="UTF-8" standalone="no"?><svg width="60" height="59" viewBox="0 0 60 59" fill="none" xmlns="http://www.w3.org/2000/svg">
<circle cx="30.0171" cy="29.5" r="29.5" fill="white"/>
<path d="M30.0171 0C13.7282 0 0.51709 13.313 0.51709 29.7331C0.51709 42.8702 8.96884 54.0152 20.6926 57.9474C22.1652 58.2224 22.6421 57.3007 22.6421 56.5177V50.9824C14.4362 52.7813 12.7276 47.4739 12.7276 47.4739C11.3854 44.0372 9.45067 43.1229 9.45067 43.1229C6.77355 41.277 9.65471 41.3167 9.65471 41.3167C12.617 41.5248 14.1756 44.3816 14.1756 44.3816C16.806 48.9259 21.0761 47.6126 22.7601 46.852C23.0231 44.9317 23.7877 43.6185 24.6333 42.8777C18.0819 42.1219 11.1936 39.5723 11.1936 28.182C11.1936 24.9337 12.3466 22.2825 14.2321 20.2012C13.9273 19.4504 12.9169 16.4251 14.5198 12.3318C14.5198 12.3318 16.9978 11.534 22.6347 15.3795C24.9873 14.7204 27.5096 14.3908 30.0171 14.3784C32.5246 14.3908 35.0493 14.7204 37.4068 15.3795C43.0389 11.534 45.512 12.3318 45.512 12.3318C47.1173 16.4276 46.1069 19.4529 45.802 20.2012C47.695 22.2825 48.8381 24.9362 48.8381 28.182C48.8381 39.602 41.9375 42.117 35.3689 42.8529C36.426 43.7746 37.3921 45.5834 37.3921 48.3585V56.5177C37.3921 57.3081 37.8641 58.2373 39.3612 57.9449C51.0752 54.0077 59.5171 42.8653 59.5171 29.7331C59.5171 13.313 46.3085 0 30.0171 0Z" fill="black"/>
</svg>
