<?xml version="1.0" encoding="UTF-8" standalone="no"?><svg width="72" height="71" viewBox="0 0 72 71" fill="none" xmlns="http://www.w3.org/2000/svg">
<path d="M56.7254 0H15.3088C7.1408 0 0.51709 6.62371 0.51709 14.7917V56.2083C0.51709 64.3763 7.1408 71 15.3088 71H56.7254C64.8963 71 71.5171 64.3763 71.5171 56.2083V14.7917C71.5171 6.62371 64.8963 0 56.7254 0ZM24.1838 56.2083H15.3088V23.6667H24.1838V56.2083ZM19.7463 19.9155C16.8885 19.9155 14.5692 17.5784 14.5692 14.697C14.5692 11.8156 16.8885 9.4785 19.7463 9.4785C22.604 9.4785 24.9233 11.8156 24.9233 14.697C24.9233 17.5784 22.607 19.9155 19.7463 19.9155ZM59.6838 56.2083H50.8088V39.6298C50.8088 29.6662 38.9754 30.4205 38.9754 39.6298V56.2083H30.1004V23.6667H38.9754V28.8881C43.1053 21.2379 59.6838 20.6728 59.6838 36.213V56.2083Z" fill="black"/>
<path d="M19.7463 19.9155C16.8885 19.9155 14.5692 17.5784 14.5692 14.697C14.5692 11.8156 16.8885 9.4785 19.7463 9.4785C22.604 9.4785 24.9233 11.8156 24.9233 14.697C24.9233 17.5784 22.607 19.9155 19.7463 19.9155Z" fill="white"/>
<path d="M24.1838 56.2083H15.3088V23.6667H24.1838V56.2083Z" fill="white"/>
<path d="M59.6838 56.2083H50.8088V39.6298C50.8088 29.6662 38.9754 30.4205 38.9754 39.6298V56.2083H30.1004V23.6667H38.9754V28.8881C43.1053 21.2379 59.6838 20.6728 59.6838 36.213V56.2083Z" fill="white"/>
</svg>
