<?xml version="1.0" encoding="UTF-8" standalone="no"?><svg width="265" height="129" viewBox="0 0 265 129" fill="none" xmlns="http://www.w3.org/2000/svg">
<path d="M186.819 86.2845L223.899 53.4718C223.899 53.4718 267.228 40.1054 263.718 22.2009L213.766 46.2074L176.427 73.8143L186.819 86.2845Z" fill="#3A3536"/>
<path d="M161.402 63.5141C161.402 63.5141 198.22 41.6227 208.314 36.1858C218.407 30.7488 241.816 20.1735 248.588 17.7772C258.982 14.1203 267.904 22.1776 261.726 25.6681C255.476 29.1438 235.463 36.3206 223.038 44.706C210.613 53.0913 181.755 77.9862 181.755 77.9862L161.402 63.5141Z" fill="#514D4E"/>
<path d="M161.402 63.5141C161.402 63.5141 163.966 61.9581 167.956 59.6539L186.821 73.7412C183.732 76.3824 181.74 78.0578 181.74 78.0578L161.402 63.5141Z" fill="#C9C7C7"/>
<path d="M191.614 85.7235L186.738 73.6544C182.382 75.7117 179.57 77.0125 179.57 77.0125C179.57 77.0125 179.57 89.1736 191.614 85.7235Z" fill="#ADACAC"/>
<path d="M253.824 26.6065C256.837 25.6941 258.815 23.4197 258.242 21.5266C257.669 19.6334 254.761 18.8384 251.748 19.7508C248.734 20.6632 246.756 22.9376 247.329 24.8307C247.902 26.7239 250.81 27.5189 253.824 26.6065Z" fill="#3A3536"/>
<path d="M0 81.2764C0 62.7979 41.7015 57.7435 93.1937 57.7435C144.686 57.7435 186.387 62.7979 186.387 81.2764C186.387 99.755 144.686 114.756 93.1937 114.756C41.7015 114.756 0 99.755 0 81.2764Z" fill="#3A3536"/>
<path d="M93.1936 110.005C139.012 110.005 176.154 100.335 176.154 92.4628C176.154 84.591 139.012 78.2096 93.1936 78.2096C47.3757 78.2096 10.2329 84.591 10.2329 92.4628C10.2329 100.335 47.3757 110.005 93.1936 110.005Z" fill="#666465"/>
<path d="M93.1212 105.281C43.0069 105.281 2.17572 93.3586 0.0725127 78.4134C-1.15968e-05 81.844 0.0725263 98.2681 0.0725263 98.6757C0.0725263 114.198 41.6289 128.278 93.1212 128.278C144.613 128.278 186.315 114.198 186.315 98.6757C186.315 98.3021 186.387 81.0628 186.315 78.2096C184.429 93.2228 143.453 105.281 93.1212 105.281Z" fill="#B2162D"/>
<path d="M131.073 91.1013C131.073 92.9573 129.568 94.4624 127.712 94.4624H55.3011C53.445 94.4624 51.94 92.9571 51.9402 91.1013C51.9402 89.1942 52.64 87.2878 54.0395 85.841C56.8385 82.948 58.6667 77.3198 58.1029 73.3338C57.5394 69.348 60.3218 65.5179 64.2868 64.823C68.2517 64.1274 73.0391 60.6492 74.9261 57.0933C76.8126 53.5373 81.3154 52.0739 84.9315 53.8419C88.5485 55.6099 94.4666 55.6099 98.0825 53.8419C101.699 52.0739 106.201 53.5373 108.088 57.0933C109.975 60.6492 114.762 64.1274 118.727 64.823C122.692 65.5182 125.475 69.348 124.911 73.3338C124.347 77.3195 126.176 82.9477 128.975 85.841C130.373 87.2878 131.073 89.1942 131.073 91.1013Z" fill="#F8E0A8"/>
<path d="M113.288 74.6938C112.775 73.7085 113.93 72.0922 115.867 71.0835C117.804 70.0749 119.791 70.0559 120.304 71.0411C120.817 72.0263 119.662 73.6427 117.725 74.6513C115.787 75.66 113.801 75.679 113.288 74.6938Z" fill="#F2D383"/>
<path d="M118.539 90.0337C118.626 88.9267 120.462 88.168 122.64 88.339C124.817 88.51 126.512 89.5461 126.425 90.6531C126.338 91.76 124.502 92.5188 122.325 92.3477C120.147 92.1767 118.452 91.1407 118.539 90.0337Z" fill="#F2D383"/>
<path d="M102.118 56.8304C103.192 57.1133 103.611 59.0549 103.055 61.1671C102.499 63.2794 101.177 64.7624 100.103 64.4795C99.0293 64.1967 98.6097 62.255 99.166 60.1428C99.7224 58.0306 101.044 56.5476 102.118 56.8304Z" fill="#F2D383"/>
<path d="M69.7226 74.6936C69.2098 75.6787 67.2235 75.6596 65.2861 74.651C63.3488 73.6423 62.194 72.0261 62.7069 71.041C63.2197 70.0559 65.206 70.075 67.1434 71.0837C69.0807 72.0923 70.2355 73.7086 69.7226 74.6936Z" fill="#F2D383"/>
<path d="M64.4718 90.0375C64.5587 91.1447 62.864 92.1808 60.6864 92.3519C58.5089 92.5229 56.6731 91.764 56.5862 90.6569C56.4992 89.5498 58.194 88.5136 60.3715 88.3426C62.5491 88.1715 64.3848 88.9304 64.4718 90.0375Z" fill="#F2D383"/>
<path d="M80.8909 56.8272C81.965 56.5444 83.2866 58.0276 83.8428 60.14C84.3989 62.2524 83.9791 64.1941 82.905 64.4769C81.8309 64.7597 80.5093 63.2765 79.9532 61.1641C79.397 59.0517 79.8169 57.11 80.8909 56.8272Z" fill="#F2D383"/>
</svg>
