<?xml version="1.0" encoding="UTF-8" standalone="no"?><svg width="574" height="189" viewBox="0 0 574 189" fill="none" xmlns="http://www.w3.org/2000/svg">
<g filter="url(#filter0_f_33_23)">
<ellipse cx="287" cy="179" rx="283" ry="6" fill="#C4C4C4"/>
</g>
<rect x="4" y="79.1536" width="567.337" height="20.2094" fill="#555555"/>
<rect x="523.893" y="0.5" width="19.7757" height="175.832" fill="#A4A4A4" stroke="#B5B5B5"/>
<rect x="544.169" y="13.4729" width="20.7757" height="151.571" fill="#A4A4A4"/>
<rect x="544.669" y="13.9729" width="19.7757" height="150.571" fill="#A4A4A4" stroke="#B5B5B5"/>
<rect x="544.669" y="13.9729" width="19.7757" height="150.571" fill="#A4A4A4" stroke="#B5B5B5"/>
<rect x="31.6746" y="0.5" width="19.7757" height="175.832" fill="#A4A4A4" stroke="#B5B5B5"/>
<rect x="10.3926" y="11.9778" width="20.7757" height="151.571" fill="#A4A4A4"/>
<rect x="10.8926" y="12.4778" width="19.7757" height="150.571" fill="#A4A4A4" stroke="#B5B5B5"/>
<rect x="10.8926" y="12.4778" width="19.7757" height="150.571" fill="#A4A4A4" stroke="#B5B5B5"/>
<path d="M87.3289 79.1536L68.1513 99.363M90.5252 79.1536L71.3476 99.363M93.7214 79.1536L74.5438 99.363M96.9177 79.1536L77.7401 99.363M100.114 79.1536L80.9364 99.363M103.31 79.1536L84.1326 99.363M106.506 79.1536L87.3289 99.363M109.703 79.1536L90.5252 99.363M112.899 79.1536L93.7214 99.363M116.095 79.1536L96.9177 99.363M119.292 79.1536L100.114 99.363M122.488 79.1536L103.31 99.363M125.684 79.1536L106.506 99.363M128.88 79.1536L109.703 99.363M132.077 79.1536L112.899 99.363M135.273 79.1536L116.095 99.363M138.469 79.1536L119.292 99.363M141.665 79.1536L122.488 99.363M144.862 79.1536L125.684 99.363M148.058 79.1536L128.88 99.363M151.254 79.1536L132.077 99.363M154.45 79.1536L135.273 99.363M157.647 79.1536L138.469 99.363M160.843 79.1536L141.665 99.363M87.1029 99.363L67.9253 79.1536M90.2992 99.363L71.1216 79.1536M93.4954 99.363L74.3178 79.1536M96.6917 99.363L77.5141 79.1536M99.8879 99.363L80.7104 79.1536M103.084 99.363L83.9066 79.1536M112.673 99.363L93.4954 79.1536M115.869 99.363L96.6917 79.1536M119.066 99.363L99.8879 79.1536M122.262 99.363L103.084 79.1536M125.458 99.363L106.28 79.1536M128.654 99.363L109.477 79.1536M131.851 99.363L112.673 79.1536M135.047 99.363L115.869 79.1536M138.243 99.363L119.066 79.1536M141.439 99.363L122.262 79.1536M144.636 99.363L125.458 79.1536M147.832 99.363L128.654 79.1536M151.028 99.363L131.851 79.1536M154.224 99.363L135.047 79.1536M157.421 99.363L138.243 79.1536M160.617 99.363L141.439 79.1536M106.28 99.363L87.1029 79.1536M109.477 99.363L90.2992 79.1536" stroke="#CCCCCC" stroke-width="0.2"/>
<path d="M432.526 79.1536L413.348 99.363M435.722 79.1536L416.544 99.363M438.918 79.1536L419.741 99.363M442.114 79.1536L422.937 99.363M445.311 79.1536L426.133 99.363M448.507 79.1536L429.329 99.363M451.703 79.1536L432.526 99.363M454.9 79.1536L435.722 99.363M458.096 79.1536L438.918 99.363M461.292 79.1536L442.114 99.363M464.488 79.1536L445.311 99.363M467.685 79.1536L448.507 99.363M470.881 79.1536L451.703 99.363M474.077 79.1536L454.9 99.363M477.273 79.1536L458.096 99.363M480.47 79.1536L461.292 99.363M483.666 79.1536L464.488 99.363M486.862 79.1536L467.685 99.363M490.058 79.1536L470.881 99.363M493.255 79.1536L474.077 99.363M496.451 79.1536L477.273 99.363M499.647 79.1536L480.47 99.363M502.844 79.1536L483.666 99.363M506.04 79.1536L486.862 99.363M432.3 99.363L413.122 79.1536M435.496 99.363L416.318 79.1536M438.692 99.363L419.515 79.1536M441.888 99.363L422.711 79.1536M445.085 99.363L425.907 79.1536M448.281 99.363L429.103 79.1536M457.87 99.363L438.692 79.1536M461.066 99.363L441.888 79.1536M464.262 99.363L445.085 79.1536M467.459 99.363L448.281 79.1536M470.655 99.363L451.477 79.1536M473.851 99.363L454.674 79.1536M477.047 99.363L457.87 79.1536M480.244 99.363L461.066 79.1536M483.44 99.363L464.262 79.1536M486.636 99.363L467.459 79.1536M489.832 99.363L470.655 79.1536M493.029 99.363L473.851 79.1536M496.225 99.363L477.047 79.1536M499.421 99.363L480.244 79.1536M502.618 99.363L483.44 79.1536M505.814 99.363L486.636 79.1536M451.477 99.363L432.3 79.1536M454.674 99.363L435.496 79.1536" stroke="#CCCCCC" stroke-width="0.2"/>
<path d="M245.544 79.2726L245.431 79.3917M245.431 79.3917L243.833 81.0759M245.431 79.3917L247.029 81.0759M245.431 79.3917L245.318 79.2726M243.833 81.0759L242.235 82.76M243.833 81.0759L245.431 82.76M243.833 81.0759L242.122 79.2726M242.235 82.76L240.637 84.4441M242.235 82.76L243.833 84.4441M242.235 82.76L238.926 79.2726M240.637 84.4441L239.039 86.1282M240.637 84.4441L242.235 86.1282M240.637 84.4441L235.729 79.2726M239.039 86.1282L237.44 87.8123M239.039 86.1282L240.637 87.8123M239.039 86.1282L232.533 79.2726M237.44 87.8123L235.842 89.4964M237.44 87.8123L239.039 89.4964M237.44 87.8123L229.337 79.2726M235.842 89.4964L226.367 99.4821M235.842 89.4964L237.44 91.1806M235.842 89.4964L226.141 79.2726M248.74 79.2726L248.627 79.3917M248.627 79.3917L247.029 81.0759M248.627 79.3917L250.226 81.0759M248.627 79.3917L248.514 79.2726M247.029 81.0759L245.431 82.76M247.029 81.0759L248.627 82.76M245.431 82.76L243.833 84.4441M245.431 82.76L247.029 84.4441M243.833 84.4441L242.235 86.1282M243.833 84.4441L245.431 86.1282M242.235 86.1282L240.637 87.8123M242.235 86.1282L243.833 87.8123M240.637 87.8123L239.039 89.4964M240.637 87.8123L242.235 89.4964M239.039 89.4964L237.44 91.1806M239.039 89.4964L240.637 91.1806M237.44 91.1806L229.563 99.4821M237.44 91.1806L239.039 92.8647M251.937 79.2726L251.824 79.3917M251.824 79.3917L250.226 81.0759M251.824 79.3917L253.422 81.0759M251.824 79.3917L251.711 79.2726M250.226 81.0759L248.627 82.76M250.226 81.0759L251.824 82.76M248.627 82.76L247.029 84.4441M248.627 82.76L250.226 84.4441M247.029 84.4441L245.431 86.1282M247.029 84.4441L248.627 86.1282M245.431 86.1282L243.833 87.8123M245.431 86.1282L247.029 87.8123M243.833 87.8123L242.235 89.4964M243.833 87.8123L245.431 89.4964M242.235 89.4964L240.637 91.1806M242.235 89.4964L243.833 91.1806M240.637 91.1806L239.039 92.8647M240.637 91.1806L242.235 92.8647M239.039 92.8647L232.759 99.4821M239.039 92.8647L240.637 94.5488M255.133 79.2726L255.02 79.3917M255.02 79.3917L253.422 81.0759M255.02 79.3917L256.618 81.0759M255.02 79.3917L254.907 79.2726M253.422 81.0759L251.824 82.76M253.422 81.0759L255.02 82.76M251.824 82.76L250.226 84.4441M251.824 82.76L253.422 84.4441M250.226 84.4441L248.627 86.1282M250.226 84.4441L251.824 86.1282M248.627 86.1282L247.029 87.8123M248.627 86.1282L250.226 87.8123M247.029 87.8123L245.431 89.4964M247.029 87.8123L248.627 89.4964M245.431 89.4964L243.833 91.1806M245.431 89.4964L247.029 91.1806M243.833 91.1806L242.235 92.8647M243.833 91.1806L245.431 92.8647M242.235 92.8647L240.637 94.5488M242.235 92.8647L243.833 94.5488M240.637 94.5488L235.955 99.4821M240.637 94.5488L242.235 96.2329M258.329 79.2726L258.216 79.3917M258.216 79.3917L256.618 81.0759M258.216 79.3917L259.814 81.0759M258.216 79.3917L258.103 79.2726M256.618 81.0759L255.02 82.76M256.618 81.0759L258.216 82.76M255.02 82.76L253.422 84.4441M255.02 82.76L256.618 84.4441M253.422 84.4441L251.824 86.1282M253.422 84.4441L255.02 86.1282M251.824 86.1282L250.226 87.8123M251.824 86.1282L253.422 87.8123M250.226 87.8123L248.627 89.4964M250.226 87.8123L251.824 89.4964M248.627 89.4964L247.029 91.1806M248.627 89.4964L250.226 91.1806M247.029 91.1806L245.431 92.8647M247.029 91.1806L248.627 92.8647M245.431 92.8647L243.833 94.5488M245.431 92.8647L247.029 94.5488M243.833 94.5488L242.235 96.2329M243.833 94.5488L245.431 96.2329M242.235 96.2329L239.152 99.4821M242.235 96.2329L243.833 97.917M261.525 79.2726L261.412 79.3917M261.412 79.3917L259.814 81.0759M261.412 79.3917L263.011 81.0759M261.412 79.3917L261.299 79.2726M259.814 81.0759L258.216 82.76M259.814 81.0759L261.412 82.76M258.216 82.76L256.618 84.4441M258.216 82.76L259.814 84.4441M256.618 84.4441L255.02 86.1282M256.618 84.4441L258.216 86.1282M255.02 86.1282L253.422 87.8123M255.02 86.1282L256.618 87.8123M253.422 87.8123L251.824 89.4964M253.422 87.8123L255.02 89.4964M251.824 89.4964L250.226 91.1806M251.824 89.4964L253.422 91.1806M250.226 91.1806L248.627 92.8647M250.226 91.1806L251.824 92.8647M248.627 92.8647L247.029 94.5488M248.627 92.8647L250.226 94.5488M247.029 94.5488L245.431 96.2329M247.029 94.5488L248.627 96.2329M245.431 96.2329L243.833 97.917M245.431 96.2329L247.029 97.917M243.833 97.917L242.348 99.4821M243.833 97.917L245.318 99.4821M264.722 79.2726L264.609 79.3917M264.609 79.3917L263.011 81.0759M264.609 79.3917L266.207 81.0759M264.609 79.3917L264.496 79.2726M263.011 81.0759L261.412 82.76M263.011 81.0759L264.609 82.76M261.412 82.76L259.814 84.4441M261.412 82.76L263.011 84.4441M259.814 84.4441L258.216 86.1282M259.814 84.4441L261.412 86.1282M258.216 86.1282L256.618 87.8123M258.216 86.1282L259.814 87.8123M256.618 87.8123L255.02 89.4964M256.618 87.8123L258.216 89.4964M255.02 89.4964L253.422 91.1806M255.02 89.4964L256.618 91.1806M253.422 91.1806L251.824 92.8647M253.422 91.1806L255.02 92.8647M251.824 92.8647L250.226 94.5488M251.824 92.8647L253.422 94.5488M250.226 94.5488L248.627 96.2329M250.226 94.5488L251.824 96.2329M248.627 96.2329L247.029 97.917M248.627 96.2329L250.226 97.917M247.029 97.917L245.544 99.4821M247.029 97.917L248.514 99.4821M267.918 79.2726L267.805 79.3917M267.805 79.3917L266.207 81.0759M267.805 79.3917L269.403 81.0759M267.805 79.3917L267.692 79.2726M266.207 81.0759L264.609 82.76M266.207 81.0759L267.805 82.76M264.609 82.76L263.011 84.4441M264.609 82.76L266.207 84.4441M263.011 84.4441L261.412 86.1282M263.011 84.4441L264.609 86.1282M261.412 86.1282L259.814 87.8123M261.412 86.1282L263.011 87.8123M259.814 87.8123L258.216 89.4964M259.814 87.8123L261.412 89.4964M258.216 89.4964L256.618 91.1806M258.216 89.4964L259.814 91.1806M256.618 91.1806L255.02 92.8647M256.618 91.1806L258.216 92.8647M255.02 92.8647L253.422 94.5488M255.02 92.8647L256.618 94.5488M253.422 94.5488L251.824 96.2329M253.422 94.5488L255.02 96.2329M251.824 96.2329L250.226 97.917M251.824 96.2329L253.422 97.917M250.226 97.917L248.74 99.4821M250.226 97.917L251.711 99.4821M271.114 79.2726L271.001 79.3917M271.001 79.3917L269.403 81.0759M271.001 79.3917L272.599 81.0759M271.001 79.3917L270.888 79.2726M269.403 81.0759L267.805 82.76M269.403 81.0759L271.001 82.76M267.805 82.76L266.207 84.4441M267.805 82.76L269.403 84.4441M266.207 84.4441L264.609 86.1282M266.207 84.4441L267.805 86.1282M264.609 86.1282L263.011 87.8123M264.609 86.1282L266.207 87.8123M263.011 87.8123L261.412 89.4964M263.011 87.8123L264.609 89.4964M261.412 89.4964L259.814 91.1806M261.412 89.4964L263.011 91.1806M259.814 91.1806L258.216 92.8647M259.814 91.1806L261.412 92.8647M258.216 92.8647L256.618 94.5488M258.216 92.8647L259.814 94.5488M256.618 94.5488L255.02 96.2329M256.618 94.5488L258.216 96.2329M255.02 96.2329L253.422 97.917M255.02 96.2329L256.618 97.917M253.422 97.917L251.937 99.4821M253.422 97.917L254.907 99.4821M274.31 79.2726L274.197 79.3917M274.197 79.3917L272.599 81.0759M274.197 79.3917L275.796 81.0759M274.197 79.3917L274.084 79.2726M272.599 81.0759L271.001 82.76M272.599 81.0759L274.197 82.76M271.001 82.76L269.403 84.4441M271.001 82.76L272.599 84.4441M269.403 84.4441L267.805 86.1282M269.403 84.4441L271.001 86.1282M267.805 86.1282L266.207 87.8123M267.805 86.1282L269.403 87.8123M266.207 87.8123L264.609 89.4964M266.207 87.8123L267.805 89.4964M264.609 89.4964L263.011 91.1806M264.609 89.4964L266.207 91.1806M263.011 91.1806L261.412 92.8647M263.011 91.1806L264.609 92.8647M261.412 92.8647L259.814 94.5488M261.412 92.8647L263.011 94.5488M259.814 94.5488L258.216 96.2329M259.814 94.5488L261.412 96.2329M258.216 96.2329L256.618 97.917M258.216 96.2329L259.814 97.917M256.618 97.917L255.133 99.4821M256.618 97.917L258.103 99.4821M277.507 79.2726L277.394 79.3917M277.394 79.3917L275.796 81.0759M277.394 79.3917L278.992 81.0759M277.394 79.3917L277.281 79.2726M275.796 81.0759L274.197 82.76M275.796 81.0759L277.394 82.76M274.197 82.76L272.599 84.4441M274.197 82.76L275.796 84.4441M272.599 84.4441L271.001 86.1282M272.599 84.4441L274.197 86.1282M271.001 86.1282L269.403 87.8123M271.001 86.1282L272.599 87.8123M269.403 87.8123L267.805 89.4964M269.403 87.8123L271.001 89.4964M267.805 89.4964L266.207 91.1806M267.805 89.4964L269.403 91.1806M266.207 91.1806L264.609 92.8647M266.207 91.1806L267.805 92.8647M264.609 92.8647L263.011 94.5488M264.609 92.8647L266.207 94.5488M263.011 94.5488L261.412 96.2329M263.011 94.5488L264.609 96.2329M261.412 96.2329L259.814 97.917M261.412 96.2329L263.011 97.917M259.814 97.917L258.329 99.4821M259.814 97.917L261.299 99.4821M280.703 79.2726L280.59 79.3917M280.59 79.3917L278.992 81.0759M280.59 79.3917L282.188 81.0759M280.59 79.3917L280.477 79.2726M278.992 81.0759L277.394 82.76M278.992 81.0759L280.59 82.76M277.394 82.76L275.796 84.4441M277.394 82.76L278.992 84.4441M275.796 84.4441L274.197 86.1282M275.796 84.4441L277.394 86.1282M274.197 86.1282L272.599 87.8123M274.197 86.1282L275.796 87.8123M272.599 87.8123L271.001 89.4964M272.599 87.8123L274.197 89.4964M271.001 89.4964L269.403 91.1806M271.001 89.4964L272.599 91.1806M269.403 91.1806L267.805 92.8647M269.403 91.1806L271.001 92.8647M267.805 92.8647L266.207 94.5488M267.805 92.8647L269.403 94.5488M266.207 94.5488L264.609 96.2329M266.207 94.5488L267.805 96.2329M264.609 96.2329L263.011 97.917M264.609 96.2329L266.207 97.917M263.011 97.917L261.525 99.4821M263.011 97.917L264.496 99.4821M283.899 79.2726L283.786 79.3917M283.786 79.3917L282.188 81.0759M283.786 79.3917L285.384 81.0759M283.786 79.3917L283.673 79.2726M282.188 81.0759L280.59 82.76M282.188 81.0759L283.786 82.76M280.59 82.76L278.992 84.4441M280.59 82.76L282.188 84.4441M278.992 84.4441L277.394 86.1282M278.992 84.4441L280.59 86.1282M277.394 86.1282L275.796 87.8123M277.394 86.1282L278.992 87.8123M275.796 87.8123L274.197 89.4964M275.796 87.8123L277.394 89.4964M274.197 89.4964L272.599 91.1806M274.197 89.4964L275.796 91.1806M272.599 91.1806L271.001 92.8647M272.599 91.1806L274.197 92.8647M271.001 92.8647L269.403 94.5488M271.001 92.8647L272.599 94.5488M269.403 94.5488L267.805 96.2329M269.403 94.5488L271.001 96.2329M267.805 96.2329L266.207 97.917M267.805 96.2329L269.403 97.917M266.207 97.917L264.722 99.4821M266.207 97.917L267.692 99.4821M287.096 79.2726L286.983 79.3917M286.983 79.3917L285.384 81.0759M286.983 79.3917L288.581 81.0759M286.983 79.3917L286.87 79.2726M285.384 81.0759L283.786 82.76M285.384 81.0759L286.983 82.76M283.786 82.76L282.188 84.4441M283.786 82.76L285.384 84.4441M282.188 84.4441L280.59 86.1282M282.188 84.4441L283.786 86.1282M280.59 86.1282L278.992 87.8123M280.59 86.1282L282.188 87.8123M278.992 87.8123L277.394 89.4964M278.992 87.8123L280.59 89.4964M277.394 89.4964L275.796 91.1806M277.394 89.4964L278.992 91.1806M275.796 91.1806L274.197 92.8647M275.796 91.1806L277.394 92.8647M274.197 92.8647L272.599 94.5488M274.197 92.8647L275.796 94.5488M272.599 94.5488L271.001 96.2329M272.599 94.5488L274.197 96.2329M271.001 96.2329L269.403 97.917M271.001 96.2329L272.599 97.917M269.403 97.917L267.918 99.4821M269.403 97.917L270.888 99.4821M290.292 79.2726L290.179 79.3917M290.179 79.3917L288.581 81.0759M290.179 79.3917L291.777 81.0759M290.179 79.3917L290.066 79.2726M288.581 81.0759L286.983 82.76M288.581 81.0759L290.179 82.76M286.983 82.76L285.384 84.4441M286.983 82.76L288.581 84.4441M285.384 84.4441L283.786 86.1282M285.384 84.4441L286.983 86.1282M283.786 86.1282L282.188 87.8123M283.786 86.1282L285.384 87.8123M282.188 87.8123L280.59 89.4964M282.188 87.8123L283.786 89.4964M280.59 89.4964L278.992 91.1806M280.59 89.4964L282.188 91.1806M278.992 91.1806L277.394 92.8647M278.992 91.1806L280.59 92.8647M277.394 92.8647L275.796 94.5488M277.394 92.8647L278.992 94.5488M275.796 94.5488L274.197 96.2329M275.796 94.5488L277.394 96.2329M274.197 96.2329L272.599 97.917M274.197 96.2329L275.796 97.917M272.599 97.917L271.114 99.4821M272.599 97.917L274.084 99.4821M293.488 79.2726L293.375 79.3917M293.375 79.3917L291.777 81.0759M293.375 79.3917L294.973 81.0759M293.375 79.3917L293.262 79.2726M291.777 81.0759L290.179 82.76M291.777 81.0759L293.375 82.76M290.179 82.76L288.581 84.4441M290.179 82.76L291.777 84.4441M288.581 84.4441L286.983 86.1282M288.581 84.4441L290.179 86.1282M286.983 86.1282L285.384 87.8123M286.983 86.1282L288.581 87.8123M285.384 87.8123L283.786 89.4964M285.384 87.8123L286.983 89.4964M283.786 89.4964L282.188 91.1806M283.786 89.4964L285.384 91.1806M282.188 91.1806L280.59 92.8647M282.188 91.1806L283.786 92.8647M280.59 92.8647L278.992 94.5488M280.59 92.8647L282.188 94.5488M278.992 94.5488L277.394 96.2329M278.992 94.5488L280.59 96.2329M277.394 96.2329L275.796 97.917M277.394 96.2329L278.992 97.917M275.796 97.917L274.31 99.4821M275.796 97.917L277.281 99.4821M296.684 79.2726L296.571 79.3917M296.571 79.3917L294.973 81.0759M296.571 79.3917L298.169 81.0759M296.571 79.3917L296.458 79.2726M294.973 81.0759L293.375 82.76M294.973 81.0759L296.571 82.76M293.375 82.76L291.777 84.4441M293.375 82.76L294.973 84.4441M291.777 84.4441L290.179 86.1282M291.777 84.4441L293.375 86.1282M290.179 86.1282L288.581 87.8123M290.179 86.1282L291.777 87.8123M288.581 87.8123L286.983 89.4964M288.581 87.8123L290.179 89.4964M286.983 89.4964L285.384 91.1806M286.983 89.4964L288.581 91.1806M285.384 91.1806L283.786 92.8647M285.384 91.1806L286.983 92.8647M283.786 92.8647L282.188 94.5488M283.786 92.8647L285.384 94.5488M282.188 94.5488L280.59 96.2329M282.188 94.5488L283.786 96.2329M280.59 96.2329L278.992 97.917M280.59 96.2329L282.188 97.917M278.992 97.917L277.507 99.4821M278.992 97.917L280.477 99.4821M299.881 79.2726L299.768 79.3917M299.768 79.3917L298.169 81.0759M299.768 79.3917L301.366 81.0759M299.768 79.3917L299.655 79.2726M298.169 81.0759L296.571 82.76M298.169 81.0759L299.768 82.76M296.571 82.76L294.973 84.4441M296.571 82.76L298.169 84.4441M294.973 84.4441L293.375 86.1282M294.973 84.4441L296.571 86.1282M293.375 86.1282L291.777 87.8123M293.375 86.1282L294.973 87.8123M291.777 87.8123L290.179 89.4964M291.777 87.8123L293.375 89.4964M290.179 89.4964L288.581 91.1806M290.179 89.4964L291.777 91.1806M288.581 91.1806L286.983 92.8647M288.581 91.1806L290.179 92.8647M286.983 92.8647L285.384 94.5488M286.983 92.8647L288.581 94.5488M285.384 94.5488L283.786 96.2329M285.384 94.5488L286.983 96.2329M283.786 96.2329L282.188 97.917M283.786 96.2329L285.384 97.917M282.188 97.917L280.703 99.4821M282.188 97.917L283.673 99.4821M303.077 79.2726L301.366 81.0759M301.366 81.0759L299.768 82.76M301.366 81.0759L302.964 82.76M299.768 82.76L298.169 84.4441M299.768 82.76L301.366 84.4441M298.169 84.4441L296.571 86.1282M298.169 84.4441L299.768 86.1282M296.571 86.1282L294.973 87.8123M296.571 86.1282L298.169 87.8123M294.973 87.8123L293.375 89.4964M294.973 87.8123L296.571 89.4964M293.375 89.4964L291.777 91.1806M293.375 89.4964L294.973 91.1806M291.777 91.1806L290.179 92.8647M291.777 91.1806L293.375 92.8647M290.179 92.8647L288.581 94.5488M290.179 92.8647L291.777 94.5488M288.581 94.5488L286.983 96.2329M288.581 94.5488L290.179 96.2329M286.983 96.2329L285.384 97.917M286.983 96.2329L288.581 97.917M285.384 97.917L283.899 99.4821M285.384 97.917L286.87 99.4821M306.273 79.2726L302.964 82.76M302.964 82.76L301.366 84.4441M302.964 82.76L304.562 84.4441M301.366 84.4441L299.768 86.1282M301.366 84.4441L302.964 86.1282M299.768 86.1282L298.169 87.8123M299.768 86.1282L301.366 87.8123M298.169 87.8123L296.571 89.4964M298.169 87.8123L299.768 89.4964M296.571 89.4964L294.973 91.1806M296.571 89.4964L298.169 91.1806M294.973 91.1806L293.375 92.8647M294.973 91.1806L296.571 92.8647M293.375 92.8647L291.777 94.5488M293.375 92.8647L294.973 94.5488M291.777 94.5488L290.179 96.2329M291.777 94.5488L293.375 96.2329M290.179 96.2329L288.581 97.917M290.179 96.2329L291.777 97.917M288.581 97.917L287.096 99.4821M288.581 97.917L290.066 99.4821M309.469 79.2726L304.562 84.4441M304.562 84.4441L302.964 86.1282M304.562 84.4441L306.16 86.1282M302.964 86.1282L301.366 87.8123M302.964 86.1282L304.562 87.8123M301.366 87.8123L299.768 89.4964M301.366 87.8123L302.964 89.4964M299.768 89.4964L298.169 91.1806M299.768 89.4964L301.366 91.1806M298.169 91.1806L296.571 92.8647M298.169 91.1806L299.768 92.8647M296.571 92.8647L294.973 94.5488M296.571 92.8647L298.169 94.5488M294.973 94.5488L293.375 96.2329M294.973 94.5488L296.571 96.2329M293.375 96.2329L291.777 97.917M293.375 96.2329L294.973 97.917M291.777 97.917L290.292 99.4821M291.777 97.917L293.262 99.4821M312.666 79.2726L306.16 86.1282M306.16 86.1282L304.562 87.8123M306.16 86.1282L307.758 87.8123M304.562 87.8123L302.964 89.4964M304.562 87.8123L306.16 89.4964M302.964 89.4964L301.366 91.1806M302.964 89.4964L304.562 91.1806M301.366 91.1806L299.768 92.8647M301.366 91.1806L302.964 92.8647M299.768 92.8647L298.169 94.5488M299.768 92.8647L301.366 94.5488M298.169 94.5488L296.571 96.2329M298.169 94.5488L299.768 96.2329M296.571 96.2329L294.973 97.917M296.571 96.2329L298.169 97.917M294.973 97.917L293.488 99.4821M294.973 97.917L296.458 99.4821M315.862 79.2726L307.758 87.8123M307.758 87.8123L306.16 89.4964M307.758 87.8123L309.356 89.4964M306.16 89.4964L304.562 91.1806M306.16 89.4964L307.758 91.1806M304.562 91.1806L302.964 92.8647M304.562 91.1806L306.16 92.8647M302.964 92.8647L301.366 94.5488M302.964 92.8647L304.562 94.5488M301.366 94.5488L299.768 96.2329M301.366 94.5488L302.964 96.2329M299.768 96.2329L298.169 97.917M299.768 96.2329L301.366 97.917M298.169 97.917L296.684 99.4821M298.169 97.917L299.655 99.4821M319.058 79.2726L309.356 89.4964M309.356 89.4964L307.758 91.1806M309.356 89.4964L318.832 99.4821M307.758 91.1806L306.16 92.8647M307.758 91.1806L315.636 99.4821M306.16 92.8647L304.562 94.5488M306.16 92.8647L312.44 99.4821M304.562 94.5488L302.964 96.2329M304.562 94.5488L309.243 99.4821M302.964 96.2329L301.366 97.917M302.964 96.2329L306.047 99.4821M301.366 97.917L299.881 99.4821M301.366 97.917L302.851 99.4821M302.964 79.1536L322.141 99.363M306.16 79.1536L325.338 99.363M309.356 79.1536L328.534 99.363M315.749 79.1536L334.927 99.363M312.553 79.1536L331.73 99.363M318.945 79.1536L338.123 99.363M322.141 79.1536L341.319 99.363M325.338 79.1536L344.515 99.363M328.534 79.1536L347.712 99.363M334.927 79.1536L354.104 99.363M331.73 79.1536L350.908 99.363M338.123 79.1536L357.3 99.363M322.141 79.3917L302.964 99.6011M325.338 79.3917L306.16 99.6011M328.534 79.3917L309.356 99.6011M334.927 79.3917L315.749 99.6011M331.73 79.3917L312.553 99.6011M338.123 79.3917L318.945 99.6011M341.319 79.3917L322.141 99.6011M344.515 79.3917L325.338 99.6011M347.712 79.3917L328.534 99.6011M354.104 79.3917L334.927 99.6011M350.908 79.3917L331.73 99.6011M357.3 79.3917L338.123 99.6011" stroke="#CCCCCC" stroke-width="0.2"/>
<defs>
<filter id="filter0_f_33_23" x="0" y="169" width="574" height="20" filterUnits="userSpaceOnUse" color-interpolation-filters="sRGB">
<feFlood flood-opacity="0" result="BackgroundImageFix"/>
<feBlend mode="normal" in="SourceGraphic" in2="BackgroundImageFix" result="shape"/>
<feGaussianBlur stdDeviation="2" result="effect1_foregroundBlur_33_23"/>
</filter>
</defs>
</svg>
