<?xml version="1.0" encoding="UTF-8" standalone="no"?><svg width="86" height="186" viewBox="0 0 86 186" fill="none" xmlns="http://www.w3.org/2000/svg">
<path d="M27.8116 185.637L21.5975 185.819C20.6536 185.87 19.7198 185.593 18.9387 185.029C18.2639 184.498 17.9543 183.779 18.09 183.058L19.3128 176.55C19.5433 175.323 20.9639 174.395 22.6905 174.344L26.1223 174.244C27.8488 174.193 29.3157 175.037 29.6098 176.249L31.1699 182.675C31.343 183.388 31.0713 184.123 30.4252 184.693C29.6747 185.302 28.7567 185.633 27.8116 185.637Z" fill="#3F3D56"/>
<path d="M65.6088 185.451L59.3948 185.633C58.4509 185.684 57.517 185.407 56.7359 184.843C56.0611 184.312 55.7516 183.593 55.8873 182.872L57.1101 176.364C57.3405 175.137 58.7612 174.209 60.4877 174.158L63.9195 174.058C65.6461 174.007 67.1129 174.851 67.407 176.063L68.9671 182.489C69.1402 183.202 68.8685 183.937 68.2225 184.507C67.4719 185.116 66.5539 185.447 65.6088 185.451Z" fill="#3F3D56"/>
<path d="M6.2339 130.207C5.95 130.077 5.71638 129.849 5.57168 129.56C5.42698 129.271 5.37988 128.938 5.43816 128.616C5.49645 128.295 5.65663 128.004 5.89221 127.792C6.12779 127.58 6.42464 127.46 6.73365 127.451L77.3796 125.385C77.5577 125.38 77.735 125.412 77.9015 125.479C78.0679 125.546 78.2202 125.648 78.3496 125.777C78.4791 125.907 78.5832 126.062 78.6559 126.235C78.7286 126.407 78.7686 126.593 78.7736 126.781V126.781C78.7831 127.162 78.6495 127.531 78.4023 127.808C78.155 128.085 77.8142 128.246 77.4547 128.257L77.4545 128.257L6.80858 130.323C6.61133 130.329 6.41516 130.29 6.2339 130.207Z" fill="#3F3D56"/>
<path d="M32.306 105.442L12.1121 106.033L13.9948 178.229L34.1887 177.638L32.306 105.442Z" fill="#0F0F0F"/>
<path d="M32.8183 104.145L28.9364 115.343L28.9399 166.358L33.6699 167.794L32.8183 104.145Z" fill="#CCCCCC"/>
<path d="M22.1037 86.5746C18.3257 86.6883 15.4433 93.6115 15.5126 96.3132L15.6401 101.204L29.3199 100.804L29.1923 95.9132C29.1207 93.2116 25.8818 86.4673 22.1037 86.5746Z" fill="#3F3D56"/>
<path d="M12.374 135.931C11.6681 135.951 10.9837 135.673 10.4708 135.159C9.9579 134.645 9.65846 133.937 9.63816 133.19L9.43058 125.23C9.41108 124.482 9.67287 123.757 10.1584 123.213C10.6439 122.67 11.3133 122.353 12.0194 122.333C12.7254 122.312 13.4104 122.589 13.9234 123.103C14.4365 123.617 14.7357 124.326 14.7552 125.074L14.9627 133.034C14.9814 133.781 14.7194 134.506 14.234 135.049C13.7487 135.592 13.0798 135.909 12.374 135.931Z" fill="#3F3D56"/>
<path d="M17.4986 106.204L17.4031 100.943L18.7059 100.909L18.8015 106.153L19.9824 182.578L18.6793 182.617" fill="#3F3D56"/>
<path d="M34.6215 118.505L11.2036 119.19C8.96685 116.302 8.76369 103.997 13.4316 101.655L15.2622 98.3635L29.3754 97.634L31.0248 101.1C33.3468 103.192 34.5441 115.42 34.6215 118.505Z" fill="#0F0F0F"/>
<path d="M25.8074 112.604L19.8854 112.777C18.7426 112.81 17.7711 111.24 17.7199 109.278C17.6687 107.315 18.557 105.691 19.6997 105.657L25.6217 105.484C26.7645 105.451 27.7361 107.021 27.7872 108.983C27.8384 110.946 26.9501 112.57 25.8074 112.604Z" fill="#6C63FF"/>
<path d="M14.3396 148.103L2.13253 157.234L0 177.821L14.2402 172.783L14.3396 148.103Z" fill="#0F0F0F"/>
<path d="M71.2877 104.558L51.0938 105.149L52.9765 177.344L73.1704 176.754L71.2877 104.558Z" fill="#0F0F0F"/>
<path d="M51.5773 104.386L55.7323 115.473L56.9791 166.471L52.2857 168.037L51.5773 104.386Z" fill="#CCCCCC"/>
<path d="M60.6912 85.702C56.9132 85.8157 54.0308 92.7389 54.1001 95.4406L54.2276 100.332L67.9074 99.9316L67.7798 95.0406C67.7082 92.339 64.4693 85.5947 60.6912 85.702Z" fill="#3F3D56"/>
<path d="M64.6029 107.85L64.5073 102.59L65.8102 102.555L65.9057 107.799L67.0867 184.225L65.7835 184.263" fill="#3F3D56"/>
<path d="M73.2089 117.633L49.7911 118.318C49.3828 115.704 49.911 103.509 52.0191 100.782L53.8497 97.4909L67.9629 96.7613L69.6124 100.227C73.7793 100.586 75.2367 112.57 73.2089 117.633Z" fill="#0F0F0F"/>
<path d="M64.4235 112.83L58.5015 113.003C57.3587 113.036 56.3807 111.22 56.3217 108.954C56.2626 106.689 57.1445 104.818 58.2872 104.785L64.2092 104.612C65.3519 104.578 66.3299 106.395 66.389 108.66C66.4481 110.925 65.5662 112.796 64.4235 112.83Z" fill="#6C63FF"/>
<path d="M72.2854 142.826L84.0864 152.536L85.329 173.206L71.3213 167.484L72.2854 142.826Z" fill="#0F0F0F"/>
<path d="M38.9876 0.00126595C35.2096 0.114886 32.3272 7.03817 32.3965 9.73981L32.524 14.6309L46.2038 14.2309L46.0762 9.33982C46.0046 6.63823 42.7657 -0.10605 38.9876 0.00126595Z" fill="#3F3D56"/>
<path d="M47.1332 185.21L40.9192 185.392C39.9753 185.444 39.0415 185.166 38.2603 184.603C37.5855 184.071 37.276 183.353 37.4117 182.631L38.6345 176.124C38.8649 174.896 40.2856 173.968 42.0122 173.918L45.4439 173.817C47.1705 173.767 48.6374 174.611 48.9315 175.823L50.4915 182.249C50.6646 182.961 50.393 183.697 49.7469 184.267C48.9963 184.875 48.0784 185.207 47.1332 185.21Z" fill="#3F3D56"/>
<path d="M49.9042 31.1379L29.7103 31.7284L33.516 177.664L53.7099 177.073L49.9042 31.1379Z" fill="#0F0F0F"/>
<path d="M41.8241 101.779L41.7285 96.519L43.0314 96.4848L43.1269 101.728L44.3079 178.154L43.0047 178.192" fill="#3F3D56"/>
<path d="M53.88 44.4941L26.5181 45.2942C26.0411 42.2406 26.6582 27.9916 29.1214 24.8057L29.7964 21.0027L48.6892 20.4503L49.6777 24.1567C52.3907 26.6013 53.7896 40.889 53.88 44.4941Z" fill="#0F0F0F"/>
<path d="M49.2864 20.8991L29.7902 21.4691C29.0706 21.4902 28.4763 21.0901 28.463 20.5755C28.4612 20.5014 28.4714 20.4275 28.4932 20.357L31.5216 10.478C31.6512 10.055 32.1675 9.74434 32.7699 9.72673L45.6993 9.3487C46.3018 9.33109 46.8334 9.61112 46.985 10.0259L50.5235 19.7129C50.7045 20.2084 50.2865 20.7239 49.5899 20.8645C49.4898 20.8846 49.3883 20.8961 49.2864 20.8991Z" fill="#0F0F0F"/>
<path d="M31.7135 101.108C31.5375 101.029 31.3711 100.927 31.2181 100.805C30.9988 100.642 30.8176 100.428 30.6884 100.179C30.5592 99.9309 30.4854 99.6544 30.4727 99.371L29.7643 72.2052C29.7351 71.0806 30.7749 70.1346 32.0822 70.0964L49.5357 69.5859C50.8433 69.5474 51.9305 70.4316 51.96 71.5562L52.6683 98.7221C52.6704 99.0058 52.6112 99.2862 52.4951 99.5419C52.3791 99.7976 52.2093 100.022 51.9988 100.197C51.5325 100.599 50.9515 100.823 50.3503 100.831L32.897 101.341C32.4912 101.355 32.0873 101.276 31.7135 101.108Z" fill="#3F3D56"/>
<path d="M42.8844 19.1508L36.9625 19.3239C35.8197 19.3573 34.8534 17.9902 34.8087 16.2767C34.7641 14.5633 35.6576 13.1417 36.8004 13.1083L42.7224 12.9352C43.8651 12.9017 44.8314 14.2689 44.8761 15.9824C44.9208 17.6958 44.0272 19.1174 42.8844 19.1508Z" fill="#6C63FF"/>
<path d="M71.7878 134.167C71.0819 134.187 70.3975 133.91 69.8846 133.396C69.3717 132.882 69.0723 132.174 69.0519 131.426L68.8444 123.466C68.8253 122.719 69.0874 121.994 69.5728 121.451C70.0583 120.908 70.7274 120.592 71.4332 120.571C72.139 120.551 72.8236 120.828 73.3366 121.341C73.8496 121.855 74.149 122.563 74.1689 123.311L74.3765 131.271C74.3952 132.018 74.1331 132.743 73.6478 133.286C73.1625 133.829 72.4936 134.146 71.7878 134.167Z" fill="#3F3D56"/>
<path d="M49.8165 39.8373L61.6171 49.5481L62.8598 70.2173L48.8521 64.496L49.8165 39.8373Z" fill="#0F0F0F"/>
<path d="M31.9893 39.8373L20.1886 49.5481L18.9459 70.2173L32.9537 64.496L31.9893 39.8373Z" fill="#0F0F0F"/>
</svg>
