<?xml version="1.0" encoding="UTF-8" standalone="no"?><svg width="338" height="253" viewBox="0 0 338 253" fill="none" xmlns="http://www.w3.org/2000/svg">
<path d="M338 56.3839H0V252.524H338V56.3839Z" fill="#565661"/>
<path d="M331.398 70.8098H7.78943V238.099H331.398V70.8098Z" fill="#C0D4FF"/>
<path d="M169 39.8143C171.501 39.8143 173.529 37.3161 173.529 34.2343C173.529 31.1526 171.501 28.6544 169 28.6544C166.499 28.6544 164.471 31.1526 164.471 34.2343C164.471 37.3161 166.499 39.8143 169 39.8143Z" fill="#565661"/>
<path d="M139.973 61.7836L169 34.2343L198.328 61.7836" stroke="#565661" stroke-miterlimit="10"/>
<path d="M84.253 88.9239C84.1404 88.0339 83.9126 87.1623 83.5755 86.3309C83.5325 86.1737 83.4572 86.0271 83.3544 85.9006C83.2517 85.7741 83.1237 85.6703 82.9786 85.596C82.7846 85.5455 82.5813 85.5433 82.3863 85.5893L79.3456 86.0545C79.0911 86.0661 78.8474 86.1607 78.6518 86.324C78.2557 86.7403 78.6457 87.4108 78.6336 87.9852C78.62 88.6312 78.0459 89.1555 77.4233 89.329C76.7878 89.4573 76.1323 89.4492 75.5002 89.3051L71.2483 88.6446C72.5006 88.2449 73.6152 87.5014 74.4649 86.4987C75.0244 85.8361 75.3221 84.599 74.5135 84.2852C74.2732 84.2192 74.0227 84.1991 73.775 84.2259C71.8486 84.2408 70.3327 82.6329 68.5292 81.9557C67.375 81.5503 66.1221 81.5201 64.9497 81.8695C63.7772 82.2189 62.7454 82.93 62.0016 83.9011L64.2666 84.0102C64.4797 83.9985 64.691 84.0548 64.8699 84.1711C65.3663 84.5788 64.7492 85.3619 64.8191 86.0004C64.91 86.8299 66.0116 87.007 66.8421 87.0908C67.6726 87.1747 68.7261 87.8492 68.3266 88.5819C64.1526 90.0192 59.9052 85.7723 55.5216 86.2951C54.4121 86.4274 53.3645 86.8631 52.2813 87.1371C45.6644 88.8108 38.8237 84.3453 32.0642 85.291C30.5614 85.5471 29.0845 85.9365 27.6509 86.4546C26.7309 86.7566 25.7713 87.0829 25.1029 87.7832C24.4344 88.4836 24.18 89.6813 24.8133 90.4136C23.0678 90.5573 21.3107 90.3903 19.6237 89.9205C20.0799 90.174 20.4594 90.5456 20.7224 90.9963C20.9854 91.4471 21.1222 91.9603 21.1184 92.4821C18.3932 92.9263 15.7401 93.7351 13.2305 94.8865C13.6989 95.6651 14.2459 96.3937 14.8631 97.0607L11.413 99.2765C12.5786 99.5701 13.1812 101.159 12.5034 102.151C13.712 101.614 14.461 100.223 15.7534 99.9415C16.6001 99.7568 17.4617 100.103 18.2649 100.428C19.0681 100.754 19.951 101.069 20.7825 100.825C21.614 100.581 22.2273 99.5029 21.6989 98.8162C25.253 97.7796 28.9261 97.2059 32.6271 97.1094C32.9126 97.0735 33.2022 97.1285 33.4547 97.2664C33.9365 97.6005 33.8097 98.3223 33.7838 98.9079C33.7578 99.4935 34.2144 100.263 34.738 99.9992C34.122 100.533 34.6486 101.538 35.2395 102.1C35.8305 102.661 36.5428 103.436 36.181 104.167C36.0865 104.357 35.9264 104.51 35.8355 104.702C35.5673 105.27 35.9931 105.932 36.4954 106.309C36.9976 106.686 37.6128 106.95 37.9617 107.472C38.3106 107.994 38.1521 108.908 37.5283 108.981L35.7551 106.73C35.1493 107.358 34.7339 108.145 34.5572 108.999C36.4376 110.536 36.7204 113.664 35.1462 115.513C34.3418 116.457 33.1978 117.031 32.1993 117.768C31.2008 118.505 30.2769 119.555 30.2795 120.796C30.2838 122.939 30.1086 124.931 30.9121 126.918C32.3937 130.582 34.1043 134.15 36.0337 137.6C36.5404 138.506 37.1953 139.499 38.2217 139.655C36.9245 136.498 35.7567 133.292 34.7185 130.037C35.3947 130.039 36.1762 130.093 36.5726 130.641C36.9009 131.094 36.8304 131.711 36.9324 132.261C37.0621 132.795 37.2785 133.303 37.5728 133.766L43.7673 144.797C44.2808 145.712 44.8699 146.693 45.8513 147.064C46.4788 147.3 47.2047 147.256 47.7823 147.597C48.235 147.864 48.5399 148.338 49.0014 148.59C50.3063 149.301 52.1209 147.937 53.3404 148.786C53.689 149.029 53.9109 149.415 54.2322 149.693C55.3584 150.668 57.206 150.016 58.5062 150.743C59.3441 151.212 59.7784 152.15 60.2253 152.999C61.3449 155.128 63.1564 157.213 65.5556 157.382C66.3093 157.435 67.0791 157.292 67.8158 157.46C68.5525 157.628 69.2777 158.27 69.1595 159.016C68.9567 160.295 69.5888 161.696 69.4191 162.979C69.1099 165.318 65.7921 166.345 65.5071 168.687C65.4447 169.199 65.5423 169.729 65.4202 170.23C65.2706 170.845 64.8086 171.346 64.6444 171.957C64.3333 173.116 65.1635 174.269 66.0756 175.048C66.9876 175.828 68.0755 176.5 68.5742 177.591C69.1012 178.744 68.8423 180.088 69.0137 181.345C69.3879 184.087 71.7573 186.12 74.1958 187.431C74.9387 187.83 75.7365 188.217 76.2173 188.91C76.8449 189.814 76.7824 191.006 76.992 192.087C77.5053 194.733 79.7337 196.914 79.797 199.609C79.842 201.524 78.7769 203.262 78.1407 205.069C77.5442 206.801 77.3284 208.641 77.5079 210.463C77.6874 212.286 78.258 214.048 79.1809 215.63C79.6568 216.434 80.226 217.191 80.5627 218.062C81.1635 219.616 80.9686 221.383 81.5225 222.955C82.2549 225.032 84.2674 226.749 84.0747 228.943C84.9884 230.84 87.0059 231.772 89.0346 232.336L92.6705 233.348C93.3667 233.542 94.0941 233.737 94.803 233.597C95.5119 233.457 96.1885 232.868 96.1702 232.146C94.3872 231.744 92.547 231.316 91.0772 230.23C89.6075 229.144 88.6006 227.21 89.1583 225.47C89.4169 224.663 89.967 223.731 89.444 223.064C89.1445 222.683 88.5969 222.583 88.2591 222.235C87.7323 221.691 87.9133 220.779 88.2921 220.124C88.6708 219.469 89.2183 218.883 89.371 218.142C89.4482 217.728 89.3966 217.299 89.2234 216.915C89.0501 216.53 88.7634 216.208 88.4016 215.991C89.0758 215.737 89.6889 215.343 90.2013 214.837C90.6745 214.297 90.8931 213.464 90.5209 212.849C91.6264 212.99 92.9316 213.058 93.6573 212.213C94.2369 211.538 94.1971 210.528 93.9681 209.669C93.7391 208.809 93.3521 207.974 93.34 207.084C95.8903 207.205 98.4462 207.119 100.983 206.825C100.616 205.59 99.7823 204.547 98.6589 203.916C99.8076 203.722 100.854 202.347 101.217 201.24C101.58 200.134 101.487 198.928 101.263 197.785C101.177 197.491 101.165 197.18 101.229 196.88C101.358 196.468 101.763 196.217 102.138 196.001L107.839 192.728C108.179 192.558 108.488 192.33 108.751 192.055C109.348 191.354 109.26 190.295 108.954 189.426C108.648 188.557 108.158 187.74 108.04 186.826C107.688 184.093 110.614 182.133 111.601 179.56C111.989 178.551 112.068 177.454 112.143 176.375C112.223 175.217 112.229 173.871 111.34 173.124C110.487 172.409 109.154 172.568 108.262 171.903C107.443 171.293 107.161 170.107 106.267 169.614C105.455 169.167 104.437 169.451 103.535 169.241C101.945 168.87 100.944 167.038 99.3209 166.869C98.4049 166.773 97.3682 167.221 96.6174 166.688C95.9558 166.218 95.9293 165.273 95.8034 164.472C95.5827 163.226 94.9855 162.078 94.0922 161.182C93.1988 160.286 92.0523 159.685 90.8071 159.461C89.8626 159.309 88.8345 159.367 88.031 158.848C87.2174 158.322 86.8444 157.339 86.2053 156.611C85.1753 155.438 83.5531 155.022 82.0334 154.665L75.8522 153.212C74.7549 152.954 73.3405 152.817 72.7517 153.778C72.5773 154.144 72.4539 154.532 72.3849 154.931C72.1643 155.654 71.7202 156.288 71.1166 156.742C70.513 157.196 69.7809 157.447 69.0255 157.459C68.5075 156.576 67.6682 155.927 66.6828 155.647C66.056 155.472 65.3851 155.453 64.7873 155.196C64.4618 155.037 64.1721 154.814 63.9359 154.539C63.6998 154.264 63.5222 153.944 63.4141 153.599C63.3059 153.253 63.2695 152.889 63.3069 152.529C63.3444 152.169 63.455 151.82 63.632 151.504C63.9884 150.869 64.126 150.136 64.0237 149.415C63.9213 148.695 63.5847 148.028 63.0657 147.518C62.0145 146.575 60.4939 146.347 59.0844 146.441C58.7152 145.636 59.3325 144.728 59.9976 144.142C60.6628 143.557 61.4705 142.982 61.6153 142.108C61.8432 140.733 60.0887 139.689 58.7566 140.099C57.4245 140.509 56.5743 141.803 56.0123 143.078C55.6898 143.809 55.4156 144.58 54.907 145.196C54.3983 145.813 53.5792 146.255 52.8044 146.057C51.7075 145.777 51.2839 144.474 51.0411 143.368C50.7154 141.885 50.3878 140.382 50.456 138.865C50.5243 137.348 51.0358 135.79 52.1548 134.763C53.9781 133.09 56.7753 133.254 59.2361 133.521C58.6547 132.866 58.7984 131.762 59.4204 131.146C59.7488 130.854 60.1434 130.647 60.57 130.542C60.9965 130.437 61.4422 130.438 61.8684 130.545C62.6099 130.699 63.2779 131.098 63.7649 131.678C64.4641 132.53 64.663 133.681 65.1916 134.649C65.7201 135.616 66.9086 136.441 67.8814 135.922C68.7217 135.474 68.855 134.309 68.6459 133.38C68.4368 132.451 67.9926 131.548 68.0684 130.599C68.2129 128.788 70.0908 127.698 71.7479 126.952C73.405 126.206 75.3025 125.203 75.5651 123.405C75.5741 123.053 75.6405 122.705 75.7617 122.375C75.9455 122.083 76.2009 121.843 76.5037 121.677C81.34 118.482 86.2568 115.248 91.7845 113.502C92.0721 113.411 92.1059 113.512 92.3989 113.441C92.8091 113.204 92.5373 112.548 92.1441 112.284C91.7508 112.02 91.2252 111.817 91.1254 111.354C91.052 111.014 91.2526 110.68 91.3047 110.335C91.4328 109.49 90.4205 108.709 89.6344 109.047C89.1904 108.459 90.069 107.776 90.7794 107.58C92.9127 106.993 95.1026 106.636 97.3118 106.513C97.5668 106.473 97.828 106.517 98.0552 106.64C98.4262 106.897 98.3788 107.486 98.1158 107.853C97.8529 108.22 97.4438 108.45 97.1161 108.76C96.7581 109.109 96.5027 109.549 96.3779 110.033C96.2531 110.517 96.2636 111.026 96.4083 111.504C97.5616 112.091 98.8155 112.694 100.093 112.488C101.37 112.281 102.504 110.846 101.904 109.7C101.344 108.633 99.6649 108.393 99.3761 107.223C99.038 105.854 100.977 104.636 100.54 103.295C100.349 102.708 99.7632 102.362 99.3138 101.938C98.7831 101.418 98.4221 100.749 98.2783 100.021C98.1344 99.2917 98.2143 98.5364 98.5076 97.8539C97.7757 97.9826 97.0235 97.934 96.3143 97.7121C95.605 97.4902 94.9593 97.1015 94.4313 96.5786C93.4563 95.5949 92.6785 94.0432 91.2939 94.0872C90.0234 94.1276 88.929 95.6094 87.741 95.1573C87.4487 95.0461 87.1406 94.8197 86.8574 94.9524C86.7646 95.0126 86.6867 95.0931 86.6296 95.1879C86.5725 95.2827 86.5377 95.3891 86.5278 95.4993C86.2259 96.9423 86.7452 98.5864 85.9585 99.8334C85.1025 101.19 83.1223 101.378 82.0845 102.602C81.5211 103.266 81.3028 104.161 80.785 104.861C80.2672 105.562 79.1681 106.007 78.5466 105.397C78.8521 104.769 78.9355 104.056 78.7832 103.375C78.631 102.694 78.2521 102.084 77.7085 101.646C77.1315 101.27 76.5096 100.968 75.8573 100.746C75.1284 100.438 74.435 100.051 73.7892 99.5938C73.4656 99.3987 73.2028 99.1176 73.0299 98.7817C72.8932 98.3612 72.9116 97.9056 73.0818 97.4974C73.397 96.5942 73.9529 95.7942 74.6896 95.1838C75.4263 94.5734 76.3158 94.1757 77.262 94.0338C78.0894 93.9212 79.0524 93.9609 79.6 93.3306C79.8898 92.9971 80.0418 92.493 80.4623 92.3575C80.7313 92.3035 81.0106 92.3379 81.2585 92.4555L84.3469 93.5423C84.6914 93.6978 85.0707 93.7605 85.4471 93.7242C85.6336 93.699 85.8038 93.6043 85.9235 93.459C86.0431 93.3136 86.1033 93.1284 86.092 92.9405C85.9934 92.4278 85.2042 92.1817 85.276 91.6646C85.3162 91.497 85.4063 91.3455 85.5345 91.2302C86.649 90.0443 88.0121 89.1194 89.526 88.5217C91.04 87.924 92.6674 87.6684 94.2918 87.773C94.6816 88.413 94.0651 89.1709 93.5521 89.7173C93.0392 90.2637 92.627 91.2399 93.2473 91.6604C93.5015 91.7901 93.7843 91.8538 94.0696 91.8456C94.83 91.9485 95.5689 92.1725 96.2584 92.5092C97.3256 92.9735 98.3723 93.4816 99.3985 94.0333C99.3079 93.3568 99.2214 92.6442 99.4779 92.0117C99.7343 91.3792 100.463 90.8831 101.1 91.1294C101.714 91.3668 102.028 92.179 102.682 92.2534C103.554 92.3527 103.898 91.0648 103.534 90.2666C103.169 89.4683 102.448 88.7999 102.388 87.9246C102.348 87.334 102.572 86.6016 102.101 86.2441C101.933 86.1367 101.742 86.0699 101.544 86.0489L89.7623 83.8815C89.0626 83.7528 88.0518 83.8515 88.0208 84.5619C88.0035 84.9585 88.3578 85.3509 88.2009 85.7155C88.0334 86.1047 87.4831 86.0691 87.0823 86.2067C86.4604 86.4203 86.1483 87.1585 86.208 87.8132C86.3174 88.4637 86.5694 89.0819 86.946 89.6236C86.1797 89.3032 85.0193 89.2443 84.253 88.9239Z" fill="#3F3D56"/>
<path d="M74.8526 78.9258C74.1097 78.68 73.3091 78.6686 72.5594 78.893C71.8098 79.1174 71.1473 79.5669 70.6618 80.1805C70.4678 80.4358 70.3049 80.7878 70.4673 81.0643C70.7001 81.4607 71.2934 81.3042 71.7308 81.1624C72.3737 80.9327 73.0734 80.916 73.7266 81.1148C74.1373 81.2557 74.5047 81.5049 74.9172 81.6405C75.1181 81.7245 75.3379 81.7522 75.5533 81.7208C75.7687 81.6893 75.9714 81.5998 76.1398 81.4619C76.4229 81.1733 76.4407 80.7245 76.4412 80.3202C76.4608 80.185 76.45 80.047 76.4095 79.9165C76.369 79.7859 76.2999 79.666 76.2071 79.5656C76.042 79.47 75.8565 79.4151 75.6659 79.4056C75.2391 79.3266 74.8532 79.1012 74.5748 78.7682" fill="#3F3D56"/>
<path d="M79.1007 77.7433C78.9344 77.7343 78.7686 77.7681 78.6193 77.8416C78.4699 77.9152 78.3419 78.0259 78.2477 78.1631C78.1535 78.3004 78.0962 78.4595 78.0813 78.6253C78.0664 78.7911 78.0944 78.9579 78.1627 79.1098C78.6733 79.249 79.2067 79.2837 79.7311 79.212C79.9926 79.1714 80.2363 79.0543 80.4314 78.8755C80.6264 78.6967 80.7642 78.4642 80.8273 78.2072C80.21 78.3195 79.5729 78.1979 79.0404 77.866" fill="#3F3D56"/>
<path d="M93.3538 75.7685C91.964 76.0639 90.6141 76.5224 89.3319 77.1344C89.9363 77.3666 90.4502 77.7868 90.7976 78.3331C91.1451 78.8794 91.3079 79.5228 91.2619 80.1685C91.2076 80.4164 91.2139 80.6737 91.2802 80.9187C91.4279 81.2767 91.8559 81.411 92.2322 81.5029C92.9083 81.7086 93.6143 81.7987 94.3203 81.7693C94.6735 81.7509 95.0165 81.6446 95.3183 81.4603C95.6201 81.2759 95.8712 81.0192 96.0487 80.7134C96.1511 80.4232 96.2711 80.1396 96.4082 79.864C97.3102 78.4908 99.9897 80.1513 100.958 78.824C101.299 78.3564 101.268 77.6526 101.713 77.2821C101.943 77.1207 102.209 77.019 102.489 76.9861C104.436 76.5993 106.403 76.3193 108.381 76.1471C109.319 76.0656 110.54 75.7292 110.548 74.7887C107.018 74.0956 103.357 74.5878 100.136 76.189C98.9751 76.7702 97.4399 77.9927 96.3219 77.2222C95.9033 76.9337 95.924 76.1569 95.3479 75.8325C94.7588 75.5008 93.9791 75.6357 93.3538 75.7685Z" fill="#3F3D56"/>
<path d="M104.899 77.9269L106.556 78.2452C106.251 78.2317 105.947 78.2834 105.663 78.3968C105.38 78.5102 105.124 78.6828 104.912 78.9029C104.701 79.1231 104.539 79.3858 104.437 79.6736C104.335 79.9614 104.296 80.2675 104.321 80.5717C105.873 81.0899 107.565 80.5856 109.2 80.6545C110.835 80.7234 112.737 81.8908 112.458 83.5025C112.373 83.9898 112.092 84.4768 112.238 84.9492C112.341 85.2803 112.633 85.5153 112.798 85.8202C113.141 86.4557 112.867 87.2594 112.433 87.8371C111.999 88.4148 111.416 88.8757 111.035 89.4896C110.088 91.0164 110.626 92.9903 111.19 94.696C111.353 95.3405 111.655 95.9419 112.073 96.4586C112.909 97.347 114.271 97.4243 115.491 97.4421C116.379 97.4551 117.396 97.4112 117.957 96.7235C118.691 95.8256 118.178 94.4248 118.661 93.371C119.099 92.414 120.216 92.0034 121.227 91.7122C123.081 91.1788 124.97 90.7252 126.722 89.9194C128.898 88.9188 130.932 87.3595 133.324 87.2307C133.995 87.1946 134.682 87.2738 135.329 87.09C135.975 86.9062 136.589 86.3476 136.54 85.6776C136.498 85.1051 136.014 84.6848 135.635 84.2532C135.257 83.8217 134.959 83.1581 135.307 82.7015L141.576 81.531C141.132 80.3203 140.786 78.7258 141.807 77.9378C142.175 77.6534 142.669 77.5398 142.982 77.1961C143.517 76.6102 143.248 75.601 142.631 75.1027C142.014 74.6045 141.179 74.4888 140.389 74.4232C137.64 74.195 134.875 74.3458 132.121 74.4967C126.737 74.7917 121.354 75.0867 115.97 75.3817C114.886 75.4411 113.635 75.3504 112.641 75.72C111.799 76.033 111.201 76.6074 110.239 76.8092C108.462 77.1818 106.507 76.9297 104.899 77.9269Z" fill="#3F3D56"/>
<path d="M134.586 91.0216C134.417 90.9949 134.245 91.0341 134.104 91.131C134.011 91.2335 133.955 91.3647 133.947 91.5028C133.84 92.1127 133.967 92.7405 134.304 93.2604C134.475 93.5155 134.712 93.7201 134.989 93.8529C135.266 93.9857 135.573 94.042 135.88 94.0158C136.626 93.9207 137.176 93.2843 137.862 92.9737C138.919 92.4955 143.409 91.7501 140.303 90.0725C139.233 89.4944 138.541 90.0047 137.697 90.3855C136.738 90.8764 135.662 91.0963 134.586 91.0216Z" fill="#3F3D56"/>
<path d="M161.792 76.9798C161.429 77.1279 161.126 77.392 160.929 77.7307C160.838 77.9027 160.817 78.1029 160.87 78.29C160.923 78.477 161.046 78.6366 161.213 78.7357C161.349 78.7848 161.492 78.8076 161.636 78.8028L163.111 78.8468C163.737 78.8655 164.52 78.9989 164.688 79.6025C164.813 80.0506 164.534 80.6265 164.871 80.9468C165.016 81.0589 165.19 81.1269 165.373 81.1424C165.859 81.2671 166.366 81.2835 166.859 81.1903C167.932 80.9026 167.368 80.2479 167.706 79.665C168.223 78.773 168.133 79.3129 169.045 78.8017C169.717 78.4242 170.587 77.7394 170.025 76.7772C169.049 75.1039 163.233 76.261 161.792 76.9798Z" fill="#3F3D56"/>
<path d="M190.899 76.1386L190.042 76.2528C188.111 76.5104 186.169 76.7704 184.31 77.3501C185.115 77.6683 185.959 77.8755 186.82 77.966C187.294 77.9892 187.765 78.0561 188.227 78.1659C189.048 78.4103 189.876 79.0416 190.669 78.7182C191.162 78.5177 191.322 78.0055 191.73 77.7341C192.011 77.5466 193.079 77.2432 193.198 77.054C194.163 75.5246 191.64 76.0396 190.899 76.1386Z" fill="#3F3D56"/>
<path d="M194.659 80.0293C193.515 80.6687 192.454 81.4457 191.499 82.3429C191.096 82.721 190.685 83.1912 190.722 83.7421C190.77 84.4742 191.551 84.8988 192.226 85.1849L194.964 86.3435C195.296 85.8756 194.992 85.2297 194.649 84.7698C194.306 84.31 193.898 83.778 194.049 83.2246C194.222 82.5932 194.993 82.378 195.638 82.2692C196.691 82.0919 199.529 82.1062 199.188 80.4108C198.786 78.4132 195.715 79.4391 194.659 80.0293Z" fill="#3F3D56"/>
<path d="M194.109 193.075C193.848 193.83 193.823 194.718 194.274 195.377C194.78 196.116 195.792 196.391 196.668 196.204C197.54 195.972 198.318 195.472 198.891 194.775C199.415 194.191 199.846 193.53 200.169 192.815C200.62 191.701 200.938 190.537 201.117 189.349L201.967 184.887C202.157 183.89 202.149 180.834 200.316 181.83C199.815 182.102 198.656 184.25 198.131 184.859C197.185 185.957 197.06 187.022 196.562 188.352C195.939 190.018 194.685 191.407 194.109 193.075Z" fill="#3F3D56"/>
<path d="M290.927 215.905C290.327 215.671 289.745 215.394 289.185 215.076C288.624 216.619 288.325 218.245 288.302 219.887L292.406 217.565C293.024 217.216 293.724 216.731 293.71 216.022C293.716 215.934 293.698 215.847 293.658 215.768C293.618 215.69 293.558 215.624 293.483 215.578C293.392 215.541 293.293 215.529 293.196 215.544C292.587 215.594 292.032 215.894 291.458 216.102C290.884 216.31 290.213 216.42 289.686 216.111" fill="#3F3D56"/>
<path d="M312.578 217.284C312.128 217.406 311.688 217.564 311.262 217.756C310.32 218.235 309.68 219.145 308.832 219.776C308.021 220.38 307.045 220.711 306.086 221.034C305.804 221.283 305.934 221.785 306.24 222.003C306.569 222.191 306.946 222.275 307.324 222.247C308.319 222.269 309.369 222.279 310.241 221.798C310.732 221.479 311.192 221.114 311.614 220.708C312.634 219.857 313.859 219.296 315.071 218.754C315.512 218.587 315.92 218.343 316.276 218.034C317.038 217.283 317.091 216.126 315.993 215.87C315.105 215.664 313.424 217.01 312.578 217.284Z" fill="#3F3D56"/>
<path d="M322.145 211.036C322.194 210.52 322.126 209.999 321.944 209.513C321.763 209.028 321.473 208.589 321.098 208.232C321.086 209.265 321.055 210.365 320.474 211.219C320.06 211.828 319.411 212.239 318.957 212.819C318.503 213.398 318.302 214.317 318.834 214.826C319.174 215.085 319.588 215.227 320.016 215.233C321.075 215.357 322.301 215.427 323.044 214.662C323.449 214.244 323.647 213.626 324.141 213.319C324.325 213.242 324.49 213.124 324.623 212.975C324.827 212.65 324.502 212.222 324.137 212.105C323.772 211.989 323.369 212.044 323.002 211.932C322.635 211.821 322.299 211.409 322.487 211.075" fill="#3F3D56"/>
<path d="M305.142 173.165C304.586 173.3 304.011 173.334 303.443 173.265C302.5 173.092 301.766 172.381 301.005 171.799C299.195 170.421 296.995 169.653 294.721 169.604C292.653 169.565 290.565 170.125 288.533 169.734C288.666 170.472 289.297 171.026 289.972 171.355C290.646 171.684 291.39 171.849 292.067 172.172C293.152 172.693 294.012 173.588 294.49 174.692C294.708 175.201 294.846 175.755 295.176 176.2C295.852 177.108 297.132 177.308 298.262 177.233C299.735 177.137 301.273 176.713 302.644 177.262C303.692 177.681 304.442 178.599 305.318 179.312C306.193 180.025 307.426 180.555 308.431 180.04C307.387 179.702 306.479 179.039 305.838 178.149C305.197 177.258 304.858 176.186 304.87 175.089C305.856 175.179 308.695 175.144 308.542 173.47C308.413 172.051 305.989 173.012 305.142 173.165Z" fill="#3F3D56"/>
<path d="M292.246 184.712C292.421 183.752 293.378 182.905 293.08 181.976C292.873 181.333 292.128 181.016 291.454 181C290.779 180.984 290.116 181.185 289.442 181.204C289.003 181.181 288.562 181.187 288.124 181.223C286.785 181.443 285.959 182.846 284.697 183.345C283.93 183.649 283.068 183.591 282.27 183.8C280.458 184.276 279.312 185.988 278.046 187.368C275.999 189.587 273.334 191.141 270.394 191.829C269.364 192.067 268.256 192.22 267.438 192.888C266.353 193.774 266.086 195.292 265.845 196.671C265.179 200.479 264.16 204.217 262.803 207.837L267.104 208.386C267.922 208.49 268.77 208.592 269.558 208.35C270.13 208.134 270.673 207.845 271.172 207.491C273.087 206.302 275.232 205.528 277.466 205.219C278.592 205.065 279.773 205.037 280.83 205.455C281.887 205.874 282.794 206.823 282.883 207.956C283.34 207.814 283.827 207.799 284.293 207.912C284.758 208.025 285.183 208.262 285.524 208.598C286.198 209.285 286.639 210.165 286.785 211.115C286.899 211.703 287.012 212.408 287.558 212.655C288.004 212.857 288.515 212.64 289.002 212.601C290.656 212.468 292.028 214.396 293.654 214.064C295.397 213.708 295.825 211.098 297.526 210.575C298.503 210.275 299.873 210.64 300.341 209.732C300.753 208.931 299.931 208.007 300.016 207.111C300.12 206.007 301.422 205.538 302.427 205.067C305.888 203.443 307.531 198.785 305.854 195.35C304.86 193.315 302.904 191.712 302.543 189.476C302.265 187.756 302.943 185.75 301.846 184.396C301.288 183.707 300.343 183.327 300.011 182.505C299.802 181.987 299.886 181.4 299.773 180.854C299.661 180.307 299.184 179.735 298.644 179.877C297.077 180.288 296.577 185.128 295.738 186.304C294.462 188.092 291.844 186.914 292.246 184.712Z" fill="#3F3D56"/>
<path d="M263.278 174.993C262.743 174.843 262.158 174.695 261.645 174.91C261.132 175.125 260.832 175.878 261.244 176.251C264.466 176.126 267.708 176.001 270.902 176.439C274.583 176.943 278.226 178.191 281.922 177.824C279.811 177.201 277.664 176.703 275.494 176.333L271.875 175.641C270.904 175.438 269.923 175.287 268.936 175.187C266.871 175.017 265.308 175.563 263.278 174.993Z" fill="#3F3D56"/>
<path d="M266.504 163.775C266.237 163.753 265.905 163.734 265.767 163.964C265.635 164.183 265.786 164.474 265.715 164.72C265.618 165.056 265.177 165.142 264.83 165.097C264.482 165.051 264.107 164.941 263.799 165.108C263.643 165.215 263.526 165.369 263.465 165.548C263.404 165.727 263.403 165.921 263.461 166.1C263.587 166.457 263.79 166.781 264.057 167.05C264.512 167.623 265.031 168.143 265.603 168.6C266.71 169.417 268.21 169.811 268.908 170.997C269.006 171.227 269.157 171.43 269.349 171.591C269.684 171.803 270.121 171.642 270.481 171.477L271.745 170.9C271.972 170.818 272.176 170.68 272.335 170.498C272.624 170.106 272.447 169.55 272.205 169.128C271.962 168.706 271.652 168.269 271.704 167.786C271.797 166.923 272.906 166.593 273.362 165.856C273.822 165.112 273.522 164.154 273.575 163.281C273.637 162.26 274.279 160.933 273.247 160.17C272.37 159.522 271.531 160.121 270.901 160.836C269.573 162.345 268.945 163.979 266.504 163.775Z" fill="#3F3D56"/>
<path d="M274.174 148.526C274.606 149.352 275.505 149.845 275.976 150.649C276.486 151.52 276.427 152.647 276.981 153.492C277.548 154.358 278.69 154.819 279.009 155.805C279.356 156.881 278.568 158.189 279.196 159.13C279.313 159.284 279.461 159.411 279.631 159.505C279.8 159.599 279.986 159.656 280.179 159.674C280.372 159.691 280.566 159.669 280.749 159.608C280.932 159.546 281.101 159.448 281.244 159.318C281.509 159.03 281.651 158.649 281.64 158.258C281.628 157.866 281.464 157.495 281.182 157.222C280.81 156.883 280.276 156.737 279.965 156.341C279.803 156.112 279.696 155.85 279.65 155.573C279.481 154.776 279.508 153.95 279.729 153.166C279.812 152.967 279.833 152.747 279.79 152.536C279.65 152.129 279.099 152.101 278.713 151.912C277.835 151.484 277.857 150.246 278.01 149.282C277.908 149.923 275.621 148.832 275.381 148.468C274.905 147.746 275.164 146.353 275.07 145.554C274.043 146.049 273.647 147.516 274.174 148.526Z" fill="#3F3D56"/>
<path d="M251.133 161.232C250.711 160.759 250.075 160.265 249.509 160.55C249.077 160.767 248.959 161.364 249.128 161.817C249.334 162.257 249.652 162.635 250.049 162.915C251.228 163.887 252.498 164.765 253.527 165.895C255.368 167.918 256.344 170.648 258.346 172.511C258.749 172.943 259.282 173.232 259.864 173.332C260.447 173.386 261.102 173.013 261.169 172.431C261.225 171.952 260.89 171.523 260.564 171.168C259.786 170.322 258.934 169.543 258.2 168.659C257.861 168.32 257.648 167.875 257.596 167.398C257.592 166.922 258.026 166.424 258.487 166.542C257.926 166.398 257.51 165.464 256.687 165.288C255.999 165.142 255.833 165.567 255.014 165.216C253.452 164.547 252.227 162.456 251.133 161.232Z" fill="#3F3D56"/>
<path d="M287.829 115.231C287.381 115.098 286.94 114.941 286.509 114.76C285.35 114.412 283.815 115.264 283.97 116.464C284.073 117.262 284.815 117.8 285.225 118.491C285.833 119.517 285.671 120.819 285.352 121.967C285.273 122.323 285.124 122.66 284.913 122.956C284.618 123.27 284.265 123.524 283.874 123.704C282.308 124.582 280.927 125.754 279.807 127.157C279.686 127.287 279.601 127.447 279.562 127.62C279.507 128.025 279.914 128.321 280.144 128.659C280.656 129.41 280.286 130.42 280.337 131.327C280.329 131.455 280.354 131.584 280.41 131.699C280.466 131.815 280.55 131.915 280.655 131.989C280.963 132.146 281.329 131.88 281.496 131.577C282.051 130.572 281.633 128.959 282.674 128.474C282.871 128.383 283.109 128.344 283.241 128.171C283.449 127.897 283.248 127.491 283.354 127.163C283.512 126.671 284.186 126.649 284.703 126.67C285.593 126.708 286.483 126.589 287.332 126.32C287.666 126.241 287.968 126.066 288.203 125.816C288.514 125.428 288.487 124.876 288.424 124.383C288.113 121.922 287.333 119.544 286.128 117.376C287.042 117.493 288.037 117.594 288.826 117.118C289.267 116.851 289.797 116.053 289.578 115.51C289.232 114.652 288.606 115.375 287.829 115.231Z" fill="#3F3D56"/>
<path d="M170.612 128.764C170.722 129.35 170.829 129.968 170.637 130.533C170.445 131.098 169.84 131.57 169.268 131.397C168.825 131.263 168.569 130.817 168.254 130.477C166.503 128.588 162.553 129.682 161.472 127.344C161.03 126.39 161.33 125.247 161.029 124.24C160.839 123.658 160.461 123.155 159.955 122.811C159.448 122.467 158.841 122.301 158.23 122.339C157.672 122.419 157.13 122.581 156.619 122.819C153.2 124.189 149.61 125.086 145.948 125.488C145.252 125.53 144.564 125.655 143.897 125.861C142.394 126.406 141.367 127.799 140.635 129.221C139.904 130.643 139.365 132.183 138.384 133.446C137.354 134.774 135.911 135.703 134.564 136.709C134.045 137.043 133.614 137.496 133.304 138.029C133.012 138.629 133.028 139.325 133.051 139.992L133.326 148.081C133.362 149.121 133.406 150.199 133.872 151.13C134.454 152.293 135.603 153.055 136.4 154.082C137.214 155.137 137.637 156.442 137.6 157.774C137.583 158.309 137.53 158.942 137.947 159.279C138.201 159.443 138.497 159.529 138.8 159.524L149.746 160.42C151.671 160.577 153.805 160.836 155.062 162.303C155.656 162.995 156.132 163.99 157.041 164.065C157.431 164.096 157.81 163.936 158.2 163.906C159.183 163.828 160.048 164.574 160.593 165.396C161.418 166.649 161.793 168.145 161.655 169.639C161.566 170.577 161.275 171.489 161.212 172.429C160.974 176.005 164.007 179.112 164.065 182.696C164.1 184.804 163.099 186.774 162.123 188.643C163.698 191.028 162.408 194.205 163.035 196.994C163.63 199.639 165.837 201.711 166.387 204.366C166.639 205.582 166.653 207.078 167.725 207.704C168.196 207.933 168.718 208.038 169.24 208.007C172.392 208.044 175.508 207.335 178.333 205.938C179.659 205.28 181.033 204.298 181.265 202.836C181.452 201.658 180.854 200.339 181.462 199.313C182.179 198.103 184.016 198.198 185.072 197.268C186.783 195.759 185.449 192.881 186.142 190.707C186.766 188.753 188.912 187.715 189.975 185.961C190.394 185.207 190.694 184.393 190.866 183.547C191.353 181.527 191.657 179.467 191.772 177.392C191.801 176.131 191.894 174.873 192.051 173.621C193.198 166.498 200.242 161.728 202.529 154.885C202.748 154.232 202.85 153.361 202.269 152.991C201.924 152.827 201.533 152.786 201.161 152.875L196.115 153.511C195.489 153.59 194.824 153.664 194.249 153.404C193.673 153.144 193.261 152.416 193.566 151.863C194.423 150.311 192.66 148.35 191.877 146.76C189.768 142.477 187.256 138.405 184.376 134.598C184.191 134.402 184.076 134.152 184.047 133.884L185.479 133.932C184.995 132.198 184.198 130.3 182.512 129.666C181.563 129.308 180.511 129.432 179.498 129.487C176.596 129.646 173.485 129.208 170.612 128.764Z" fill="#3F3D56"/>
<path d="M179.5 89.6855C180.26 90.4917 181.111 91.3464 182.209 91.487C184.15 91.7352 185.545 89.7289 186.434 87.9863C186.467 88.4305 186.672 88.8444 187.005 89.14C187.338 89.4355 187.774 89.5893 188.219 89.5687C188.698 89.4881 189.155 89.3095 189.562 89.0439C193.407 86.9432 197.714 85.8302 202.096 85.8048C202.054 85.4729 202.136 85.1373 202.327 84.8626C202.518 84.5879 202.804 84.3936 203.13 84.3172C204.02 84.1406 204.823 84.9106 205.253 85.7105C205.682 86.5104 205.95 87.4375 206.633 88.0362C207.316 88.6349 208.638 88.6088 208.908 87.7418C209.167 86.9095 208.299 86.1996 207.579 85.7089C206.858 85.2182 206.098 84.3099 206.584 83.5857C210.265 82.771 213.97 81.9532 217.737 81.7912C218.378 81.8136 219.017 81.7035 219.614 81.4679C220.189 81.1861 220.646 80.5463 220.491 79.9254C219.669 80.1186 218.808 80.0627 218.018 79.7647C217.228 79.4668 216.544 78.9403 216.054 78.2525C221.282 77.8212 226.842 77.4536 231.474 79.9126C232.03 81.1056 229.197 82.0983 229.955 83.1743C230.197 83.5175 230.681 83.5578 231.101 83.5656C234.32 83.6253 237.558 83.6839 240.741 83.198C241.904 83.0205 243.079 82.7698 244.247 82.9138C246.192 83.1536 247.856 84.4511 249.769 84.8741C250.548 85.0463 251.421 85.0521 252.078 84.5992C252.735 84.1464 253.017 83.1151 252.479 82.5264C254.281 80.761 257.271 81.1986 259.648 82.0437C262.025 82.8889 264.277 84.2519 266.792 84.4403C268.597 84.5754 270.426 84.0903 272.208 84.3986C273.328 84.5924 274.371 85.0906 275.466 85.3966C277.537 85.9755 279.727 85.8533 281.877 85.8812C287.363 85.9551 292.788 87.0329 297.886 89.0613C298.549 89.2771 299.156 89.6359 299.665 90.1124C300.139 90.6201 300.381 91.4091 300.063 92.0264L294.796 91.257C295.292 92.2337 296.576 92.4001 297.618 92.737C298.661 93.0739 299.742 94.225 299.115 95.1236C297.986 94.764 296.962 95.8931 296.391 96.932C295.821 97.9709 295.125 99.2151 293.941 99.2784C292.881 99.335 291.599 98.4326 290.908 99.2383C291.863 100.442 292.68 101.749 293.345 103.134C294.028 104.556 294.514 106.347 293.592 107.626C293.446 107.855 293.226 108.026 292.969 108.109C292.215 108.3 291.726 107.378 291.185 106.82C290.504 106.116 289.474 105.916 288.552 105.586C287.63 105.256 286.658 104.607 286.586 103.63C286.541 103.023 286.862 102.458 287.099 101.896C287.496 100.95 287.67 99.9242 287.606 98.8996C287.555 98.0753 287.323 97.2179 286.731 96.642C286.139 96.066 285.117 95.8833 284.481 96.4108C284.185 96.6569 283.947 97.0506 283.562 97.0654C282.881 97.0914 282.358 95.9051 281.811 96.3101C281.875 96.7415 281.786 97.1818 281.558 97.554C279.924 98.9747 277.414 98.3737 275.307 98.8756C274.306 99.1621 273.346 99.5808 272.455 100.121C272.122 100.263 271.838 100.501 271.64 100.805C271.377 101.315 271.667 101.97 272.131 102.309C272.622 102.611 273.175 102.799 273.748 102.861C276.316 103.347 278.922 104.1 280.949 105.749C282.977 107.398 284.306 110.124 283.665 112.657L278.6 107.819C278.793 109.851 278.902 111.888 278.928 113.93C278.96 114.329 278.906 114.73 278.767 115.106C278.406 115.903 277.427 116.171 276.57 116.347C276.331 116.392 276.105 116.488 275.906 116.626C275.707 116.765 275.54 116.945 275.415 117.153C275.29 117.361 275.211 117.593 275.182 117.834C275.154 118.075 275.176 118.32 275.249 118.551C275.554 119.544 276.313 120.318 277.009 121.089C277.704 121.861 278.389 122.737 278.48 123.771C278.571 124.806 277.79 125.972 276.754 125.9C275.968 125.845 275.386 125.142 275.051 124.43C274.716 123.718 274.516 122.924 274.013 122.319C272.489 120.487 269.066 121.272 267.701 119.318C267.353 119.713 267.112 120.19 267 120.704C266.889 121.218 266.91 121.752 267.063 122.255C267.698 121.858 268.567 122.227 269.044 122.805C269.522 123.382 269.747 124.123 270.121 124.771C270.627 125.646 271.432 126.422 271.502 127.431C271.484 127.812 271.49 128.194 271.521 128.574C271.647 129.185 272.163 129.624 272.521 130.135C273.355 131.323 273.314 132.955 272.776 134.303C272.239 135.651 271.274 136.778 270.319 137.87C268.649 139.777 266.946 141.674 264.967 143.258C264.402 143.71 263.8 144.154 263.448 144.786C263.096 145.418 263.078 146.305 263.619 146.786C263.232 146.805 262.538 146.996 262.152 147.015C262.016 145.464 261.986 143.906 262.063 142.351C260.537 141.618 258.894 143.58 259.091 145.261C259.288 146.942 260.504 148.291 261.37 149.745C262.003 150.809 262.474 152.049 262.262 153.268C262.051 154.487 260.962 155.612 259.729 155.505C257.767 155.334 256.946 152.518 255.004 152.196C254.833 152.156 254.653 152.174 254.493 152.247C254.204 152.405 254.154 152.791 254.138 153.119C254.058 154.731 253.99 156.407 254.619 157.894C255.54 160.068 257.919 161.894 257.42 164.202C254.732 162.952 253.334 159.939 252.699 157.044C252.065 154.149 251.959 151.11 250.821 148.373C249.958 149.48 248.142 148.565 247.353 147.404C246.605 146.303 246.144 145.03 245.418 143.914C244.692 142.798 243.58 141.799 242.25 141.738C240.856 141.674 239.647 142.63 238.583 143.534C237.709 144.277 236.811 145.05 236.3 146.077C235.556 147.572 235.75 149.335 235.715 151.004C235.676 152.809 235.293 154.713 234.063 156.034C232.832 157.355 230.561 157.815 229.204 156.624C228.496 156.003 228.153 155.074 227.847 154.183C226.374 149.885 225.148 145.507 224.173 141.07C223.945 142.083 223.056 143.388 222.206 142.792C222.015 142.631 221.861 142.432 221.753 142.208C220.168 139.522 217.232 137.911 214.266 136.945C211.3 135.98 208.18 135.529 205.247 134.467C203.603 133.872 202.034 133.091 200.568 132.138C200.195 132.686 199.977 133.326 199.937 133.988C199.897 134.651 200.038 135.311 200.343 135.901C200.994 137.052 202.466 137.718 203.727 137.316C204.378 137.108 204.928 136.656 205.574 136.433C206.22 136.21 207.087 136.319 207.37 136.942C207.641 137.537 207.232 138.258 207.434 138.88C207.743 139.827 209.173 139.9 209.672 140.762C210.044 141.404 209.738 142.256 209.207 142.773C208.676 143.291 207.968 143.575 207.32 143.935C205.217 145.104 203.722 147.1 201.884 148.652C200.046 150.205 197.453 151.338 195.263 150.342C195.785 147.7 192.636 145.759 192.056 143.128C191.865 142.262 191.964 141.342 191.692 140.499C191.298 139.277 190.214 138.437 189.324 137.511C188.245 136.375 187.405 135.036 186.852 133.57C186.299 132.105 186.046 130.544 186.107 128.979C186.155 127.892 186.355 126.787 186.107 125.727C185.859 124.667 184.981 123.641 183.894 123.689C181.409 123.799 178.28 123.984 176.977 121.867C176.511 121.111 176.309 120.005 176.981 119.426C177.456 119.017 178.156 119.056 178.779 119.117L184.377 119.668C185.686 119.796 187.101 119.903 188.224 119.218C189.348 118.534 189.834 116.718 188.794 115.913C188.034 115.325 186.672 115.357 186.452 114.422C186.268 113.643 187.13 112.759 186.664 112.108C186.33 111.642 185.579 111.771 185.124 112.121C184.67 112.471 184.339 112.982 183.83 113.247C182.937 113.712 181.87 113.27 180.909 112.969C179.948 112.669 178.66 112.643 178.194 113.535C177.673 114.533 178.656 115.841 178.139 116.841C177.455 118.163 175.139 117.41 174.178 118.547C173.076 119.852 174.928 121.798 174.556 123.464C174.082 123.699 173.555 123.807 173.026 123.778C172.497 123.748 171.985 123.582 171.54 123.295C171.102 122.997 170.753 122.586 170.53 122.106C170.307 121.626 170.218 121.094 170.274 120.568C170.366 119.818 170.757 119.052 170.495 118.344C170.283 117.771 169.707 117.43 169.173 117.134L163.733 114.129C163.228 115.066 163.867 116.227 164.665 116.93C165.464 117.634 166.464 118.164 166.988 119.089C167.32 119.731 167.394 120.475 167.196 121.169C166.998 121.863 166.542 122.456 165.922 122.825C165.844 122.879 165.755 122.915 165.662 122.932C165.569 122.948 165.474 122.944 165.382 122.919C165.296 122.869 165.22 122.801 165.16 122.72C165.1 122.639 165.057 122.547 165.033 122.449C164.073 119.994 162.632 117.573 160.328 116.291C158.025 115.008 154.715 115.272 153.204 117.433C152.845 117.946 152.604 118.531 152.292 119.073C150.631 121.956 147.071 123.321 143.745 123.232C143.419 123.25 143.096 123.174 142.812 123.013C142.275 122.641 142.299 121.854 142.381 121.206L142.73 118.456C142.8 117.904 142.902 117.294 143.339 116.949C143.955 116.463 144.844 116.77 145.629 116.759C146.224 116.731 146.795 116.521 147.266 116.157C147.738 115.794 148.085 115.294 148.263 114.726C148.422 114.153 148.421 113.547 148.26 112.974C148.1 112.401 147.786 111.883 147.353 111.475C146.993 111.137 146.51 110.713 146.7 110.258C146.776 110.132 146.878 110.024 147 109.942C147.122 109.86 147.261 109.805 147.406 109.783C148.816 109.373 150.305 109.266 151.691 108.783C153.077 108.3 154.421 107.313 154.75 105.882C154.85 105.444 154.896 104.913 155.29 104.696C155.487 104.612 155.7 104.569 155.914 104.568C156.666 104.461 157.35 104.077 157.832 103.491C158.314 102.905 158.56 102.16 158.52 101.402C159.184 100.938 160.115 101.28 160.757 101.773C161.4 102.267 161.967 102.919 162.749 103.132C164.207 103.528 165.615 102.238 167.125 102.232C167.76 102.23 168.418 102.454 169.015 102.239C169.621 102.021 169.982 101.418 170.447 100.973C170.912 100.527 171.728 100.256 172.157 100.735L171.792 98.0287C172.528 98.2146 173.295 98.2409 174.042 98.1059C174.789 97.9709 175.499 97.6776 176.124 97.2458L171.399 95.65C171.235 95.609 171.083 95.5278 170.958 95.4139C170.614 95.0441 170.955 94.468 171.234 94.0477C171.903 93.0423 172.015 91.3861 170.916 90.8855C170.166 90.5438 169.305 90.9539 168.585 91.3552L165.137 93.2772C165.028 93.9324 165.829 94.3038 166.326 94.7451C166.626 95.0121 166.839 95.3638 166.936 95.7539C167.033 96.1439 167.01 96.5542 166.869 96.9308C166.728 97.3073 166.477 97.6326 166.148 97.8638C165.819 98.095 165.428 98.2214 165.026 98.2263C165.253 98.5214 165.411 98.8638 165.488 99.2281C165.565 99.5924 165.559 99.9693 165.47 100.331L163.15 100.498C162.889 100.55 162.619 100.497 162.397 100.351C162.149 100.131 162.183 99.7446 162.125 99.4178C161.987 98.6292 161.214 98.0765 160.426 97.9347C159.638 97.793 158.831 97.9747 158.05 98.1541C157.719 98.2733 157.355 98.2649 157.029 98.1305C156.843 98.0092 156.701 97.8302 156.625 97.6208C156.283 96.7912 156.603 95.8162 157.153 95.1068C157.702 94.3973 158.455 93.8787 159.131 93.2881C160.747 91.8706 161.934 90.0296 162.558 87.973C163.836 87.4381 165.158 86.7112 166.435 86.1763C168.404 85.1797 170.612 84.752 172.811 84.9413L177.136 85.0239C178.416 85.0483 179.732 85.0797 180.916 85.5677C182.1 86.0557 183.14 87.1113 183.222 88.3891C183.247 88.5337 183.234 88.6823 183.186 88.8208C183.137 88.9593 183.054 89.0832 182.945 89.1809C182.777 89.2721 182.588 89.3148 182.398 89.3041C181.204 89.346 180.694 89.6435 179.5 89.6855Z" fill="#3F3D56"/>
<path d="M145.026 103.237C145.195 103.077 145.317 102.873 145.378 102.649C145.439 102.424 145.436 102.187 145.371 101.964C144.96 101.805 144.513 101.765 144.08 101.846C143.647 101.928 143.245 102.129 142.92 102.427C142.664 102.686 142.443 102.978 142.263 103.295C141.695 104.222 141.192 105.329 141.522 106.365C141.548 106.478 141.598 106.585 141.666 106.678C141.735 106.772 141.821 106.851 141.921 106.911C142.069 106.97 142.228 106.995 142.386 106.984C143.012 106.983 143.638 106.945 144.259 106.869C144.641 106.822 145.084 106.714 145.232 106.359C145.426 105.893 144.956 105.365 145.093 104.878C145.183 104.661 145.32 104.465 145.493 104.306C145.579 104.226 145.645 104.127 145.686 104.016C145.727 103.906 145.741 103.788 145.729 103.671C145.673 103.443 145.324 103.313 145.198 103.512" fill="#3F3D56"/>
<path d="M148.273 99.0287C147.717 98.901 147.143 98.865 146.575 98.9221C146.45 98.9184 146.325 98.9466 146.214 99.0043C146.106 99.084 146.027 99.1976 145.991 99.3269C145.871 99.7117 145.9 100.128 146.073 100.492C146.246 100.856 146.55 101.141 146.924 101.291C147.128 101.338 147.324 101.417 147.503 101.524C147.983 101.896 147.677 102.657 147.768 103.258C147.87 103.932 148.523 104.498 148.404 105.17C148.309 105.699 147.744 106.118 147.835 106.647C147.93 107.202 148.634 107.369 149.196 107.413C149.521 107.47 149.856 107.432 150.16 107.303C150.464 107.095 150.681 106.781 150.768 106.422C150.998 105.739 151.094 105.017 151.052 104.297C151.05 103.97 150.968 103.648 150.813 103.359C150.644 103.131 150.456 102.916 150.252 102.718C149.177 101.468 150.309 99.6024 148.273 99.0287Z" fill="#3F3D56"/>
<line x1="35.9093" y1="123.352" x2="66.6366" y2="120.718" stroke="#EBEAFF" stroke-width="2"/>
<path d="M67.5996 120.397C159.665 111.648 327.56 93.0903 262.498 132.249M35.1165 123.768C17.8689 130.91 43.0522 156.5 86.9139 182.589" stroke="#EBEAFF" stroke-width="2"/>
<path d="M88.9197 183.433C140.982 158.162 156.696 142.233 160.031 110.566" stroke="#EBEAFF" stroke-width="2"/>
<path d="M65.8911 120.837C109.836 164.675 150.502 169.875 262.546 131.373" stroke="#EBEAFF" stroke-width="2"/>
<path d="M35.2129 127.171C37.2054 127.171 38.8206 125.557 38.8206 123.565C38.8206 121.573 37.2054 119.958 35.2129 119.958C33.2204 119.958 31.6052 121.573 31.6052 123.565C31.6052 125.557 33.2204 127.171 35.2129 127.171Z" fill="#9D97FF"/>
<path d="M88.011 188.149C90.0035 188.149 91.6187 186.535 91.6187 184.543C91.6187 182.551 90.0035 180.936 88.011 180.936C86.0185 180.936 84.4033 182.551 84.4033 184.543C84.4033 186.535 86.0185 188.149 88.011 188.149Z" fill="#9D97FF"/>
<path d="M66.8181 124.538C68.8106 124.538 70.4258 122.923 70.4258 120.931C70.4258 118.939 68.8106 117.324 66.8181 117.324C64.8257 117.324 63.2104 118.939 63.2104 120.931C63.2104 122.923 64.8257 124.538 66.8181 124.538Z" fill="#9D97FF"/>
<path d="M262.595 135.951C264.587 135.951 266.202 134.336 266.202 132.344C266.202 130.352 264.587 128.737 262.595 128.737C260.602 128.737 258.987 130.352 258.987 132.344C258.987 134.336 260.602 135.951 262.595 135.951Z" fill="#9D97FF"/>
<path d="M160.756 116.636C162.748 116.636 164.363 115.022 164.363 113.03C164.363 111.038 162.748 109.423 160.756 109.423C158.763 109.423 157.148 111.038 157.148 113.03C157.148 115.022 158.763 116.636 160.756 116.636Z" fill="#9D97FF"/>
</svg>
